<?xml version="1.0" encoding="utf-8"?>
<!-- Generator: Adobe Illustrator 24.0.3, SVG Export Plug-In . SVG Version: 6.00 Build 0)  -->
<svg version="1.1" id="Layer_1" xmlns="http://www.w3.org/2000/svg" xmlns:xlink="http://www.w3.org/1999/xlink" x="0px" y="0px"
	 viewBox="0 0 512 512" style="enable-background:new 0 0 512 512;" xml:space="preserve">
<style type="text/css">
	.st0{fill:#EC8213;}
</style>
<g>
	<g>
		<path class="st0" d="M451.72,237.26c-17.42-8.71-50.09-8.81-51.47-8.81c-4.14,0-7.5,3.36-7.5,7.5s3.36,7.5,7.5,7.5
			c8.43,0,32.9,1.3,44.76,7.23c1.08,0.54,2.22,0.79,3.35,0.79c2.75,0,5.4-1.52,6.71-4.15C456.93,243.62,455.42,239.11,451.72,237.26
			z"/>
	</g>
</g>
<g>
	<g>
		<path class="st0" d="M489.11,344.04l-30.98-8.85c-1.34-0.38-2.27-1.62-2.27-3.01v-10.34c2.52-1.75,4.92-3.7,7.17-5.88
			c10.89-10.57,16.89-24.74,16.89-39.92v-14.27l2.99-5.99c3.29-6.57,5.02-13.94,5.02-21.29v-38.65c0-4.14-3.36-7.5-7.5-7.5h-72.17
			c-26.24,0-47.6,21.35-47.6,47.6v0.45c0,6.11,1.45,12.23,4.18,17.7l3.84,7.68v12.25c0,19.41,9.57,36.83,24.06,47.32l0,10.84
			c0,1.67,0,2.36-6.19,4.13l-15.11,4.32l-43.72-15.9c0.16-2.06-0.54-4.16-2.04-5.74l-13.97-14.68v-24.64
			c1.48-1.22,2.93-2.47,4.34-3.79c17.62-16.52,27.73-39.84,27.73-63.99v-19.68c5.32-11.58,8.02-23.84,8.02-36.46V75.57
			c0-4.14-3.36-7.5-7.5-7.5H232.04c-39.51,0-71.65,32.14-71.65,71.65v16.04c0,12.62,2.7,24.88,8.02,36.46v16.93
			c0,28.04,12.47,53.29,32.08,69.95v25.22l-13.97,14.68c-1.51,1.58-2.2,3.68-2.04,5.74l-46.15,16.78c-3.34,1.22-6.45,2.86-9.27,4.86
			l-7.25-3.62c21.57-9.39,28.4-22.59,28.73-23.25c1.06-2.11,1.06-4.6,0-6.71c-5.41-10.81-6.06-30.64-6.59-46.56
			c-0.18-5.3-0.34-10.31-0.66-14.77c-2.56-35.97-29.9-63.1-63.62-63.1s-61.06,27.13-63.62,63.1c-0.32,4.46-0.48,9.47-0.66,14.77
			c-0.53,15.92-1.18,35.74-6.59,46.56c-1.06,2.11-1.06,4.6,0,6.71c0.33,0.66,7.15,13.83,28.76,23.23l-20.13,10.06
			C6.68,358.18,0,368.99,0,381.02v55.41c0,4.14,3.36,7.5,7.5,7.5s7.5-3.36,7.5-7.5v-55.41c0-6.31,3.51-11.99,9.15-14.81l25.06-12.53
			l8.72,8.29c6.1,5.79,13.92,8.69,21.74,8.69c7.82,0,15.65-2.9,21.74-8.69l8.72-8.28l8.17,4.09c-3.85,6.16-6.03,13.38-6.03,20.94
			v57.73c0,4.14,3.36,7.5,7.5,7.5s7.5-3.36,7.5-7.5v-57.73c0-10.3,6.5-19.58,16.18-23.1l48.65-17.69l20.25,30.38
			c2.59,3.88,6.74,6.38,11.38,6.83c0.52,0.05,1.03,0.08,1.55,0.08c4.1,0,8.02-1.61,10.96-4.55l12.36-12.36v78.12
			c0,4.14,3.36,7.5,7.5,7.5s7.5-3.36,7.5-7.5v-78.12l12.36,12.36c2.93,2.93,6.86,4.55,10.96,4.55c0.51,0,1.03-0.02,1.55-0.08
			c4.65-0.46,8.8-2.95,11.38-6.83l20.25-30.38l48.65,17.69c9.68,3.52,16.18,12.8,16.18,23.1v57.73c0,4.14,3.36,7.5,7.5,7.5
			s7.5-3.36,7.5-7.5v-57.73c0-10.43-4.14-20.21-11.09-27.44l1.85-0.53c1.87-0.53,4.42-1.27,6.98-2.52l19.15,19.15v69.07
			c0,4.14,3.36,7.5,7.5,7.5s7.5-3.36,7.5-7.5v-69.07l19.02-19.02c1.01,0.51,2.07,0.95,3.19,1.27l30.98,8.85
			c7.07,2.02,12.01,8.57,12.01,15.92v62.04c0,4.14,3.36,7.5,7.5,7.5s7.5-3.36,7.5-7.5v-62.04
			C512,360.37,502.59,347.89,489.11,344.04z M48.12,330.79c-14.03-5.05-21.07-11.78-24.07-15.45c2.05-5.35,3.38-11.49,4.27-17.96
			c4.14,9.92,11.06,18.38,19.8,24.42V330.79z M91.08,351.09c-6.4,6.08-16.42,6.08-22.81,0l-6.97-6.63c1.18-2.2,1.82-4.7,1.82-7.32
			v-7.99c5.23,1.64,10.79,2.52,16.56,2.52c5.76,0,11.32-0.89,16.56-2.51l0,7.99c0,2.62,0.65,5.12,1.82,7.33L91.08,351.09z
			 M79.68,316.66c-22.4,0-40.62-18.22-40.62-40.61c0-4.14-3.36-7.5-7.5-7.5c-0.42,0-0.83,0.04-1.23,0.11
			c0.02-0.64,0.04-1.29,0.07-1.93c0.17-5.16,0.33-10.03,0.62-14.21c0.96-13.48,6.34-25.89,15.16-34.97
			c8.9-9.16,20.79-14.2,33.49-14.2s24.59,5.04,33.49,14.2c8.82,9.07,14.21,21.49,15.16,34.97c0.3,4.18,0.46,9.05,0.63,14.2
			c0.01,0.44,0.03,0.89,0.04,1.34c-8.16-12.57-20.76-21.84-37.04-27.07c-15.04-4.83-27.98-4.53-28.53-4.52
			c-1.96,0.05-3.83,0.88-5.19,2.29L44.71,252.8c-2.88,2.98-2.79,7.73,0.19,10.61s7.73,2.79,10.6-0.19l11.26-11.68
			c9.7,0.47,40.89,4.1,53.03,30.82C116.74,302.04,99.82,316.66,79.68,316.66z M111.23,330.82l0-8.95
			c8.72-6.01,15.66-14.46,19.8-24.45c0.9,6.46,2.23,12.58,4.27,17.92C132.31,318.98,125.24,325.77,111.23,330.82z M183.4,209.15
			v-18.61c0-1.13-0.26-2.24-0.75-3.26c-4.83-9.99-7.27-20.6-7.27-31.52v-16.04c0-31.24,25.42-56.65,56.65-56.65h104.77v72.69
			c0,10.92-2.45,21.52-7.27,31.52c-0.49,1.02-0.75,2.13-0.75,3.26v21.35c0,20.31-8.17,39.15-22.99,53.05
			c-1.85,1.73-3.77,3.36-5.76,4.88c-0.04,0.03-0.09,0.06-0.13,0.09c-13.89,10.55-30.9,15.67-48.67,14.52
			C213.2,281.96,183.4,248.9,183.4,209.15z M225.63,360.06c-0.05,0.05-0.17,0.17-0.42,0.15c-0.24-0.02-0.34-0.17-0.38-0.23
			l-23.32-34.99l7.51-7.89l35.38,24.19L225.63,360.06z M256.1,331.11l-40.62-27.76v-14c10.51,5.68,22.28,9.23,34.79,10.04
			c1.98,0.13,3.94,0.19,5.9,0.19c14.34,0,28.14-3.43,40.54-9.93v13.7L256.1,331.11z M287.36,359.98c-0.04,0.06-0.14,0.2-0.38,0.23
			c-0.24,0.03-0.36-0.1-0.42-0.15l-18.77-18.77l35.39-24.19l7.51,7.89L287.36,359.98z M424.31,353.65l-17.02-17.02
			c0.3-1.35,0.46-2.83,0.46-4.45l0-3.17c4.72,1.55,9.7,2.47,14.85,2.62c0.58,0.02,1.15,0.03,1.73,0.03c5.69,0,11.25-0.86,16.54-2.5
			v3.02c0,1.5,0.19,2.96,0.54,4.37L424.31,353.65z M452.59,305.2c-7.95,7.71-18.45,11.79-29.54,11.45
			c-21.7-0.65-39.36-19.77-39.36-42.61v-14.02c0-1.17-0.27-2.31-0.79-3.35l-4.63-9.27c-1.7-3.4-2.59-7.2-2.59-10.99v-0.45
			c0-17.97,14.62-32.6,32.6-32.6h64.67v31.15c0,5.03-1.19,10.07-3.44,14.58l-3.79,7.57c-0.52,1.04-0.79,2.19-0.79,3.35v16.04
			C464.92,287.13,460.54,297.48,452.59,305.2z"/>
	</g>
</g>
<g>
	<g>
		<path class="st0" d="M472.42,380.81c-4.14,0-7.5,3.36-7.5,7.5v48.11c0,4.14,3.36,7.5,7.5,7.5s7.5-3.36,7.5-7.5v-48.11
			C479.92,384.17,476.57,380.81,472.42,380.81z"/>
	</g>
</g>
<g>
	<g>
		<path class="st0" d="M39.58,390.73c-4.14,0-7.5,3.36-7.5,7.5v38.2c0,4.14,3.36,7.5,7.5,7.5s7.5-3.36,7.5-7.5v-38.2
			C47.08,394.09,43.72,390.73,39.58,390.73z"/>
	</g>
</g>
<g>
	<g>
		<path class="st0" d="M317.53,158.48c-28.37-28.37-87.71-22.94-111.92-19.29c-7.62,1.15-13.15,7.6-13.15,15.34v17.28
			c0,4.14,3.36,7.5,7.5,7.5s7.5-3.36,7.5-7.5v-17.28c0-0.26,0.17-0.47,0.39-0.51c9.67-1.46,28.85-3.71,48.73-2.38
			c23.39,1.56,40.33,7.43,50.35,17.45c2.93,2.93,7.68,2.93,10.61,0C320.46,166.15,320.46,161.4,317.53,158.48z"/>
	</g>
</g>
<g>
	<g>
		<path class="st0" d="M167.88,396.85c-4.14,0-7.5,3.36-7.5,7.5v32.08c0,4.14,3.36,7.5,7.5,7.5s7.5-3.36,7.5-7.5v-32.08
			C175.38,400.21,172.03,396.85,167.88,396.85z"/>
	</g>
</g>
<g>
	<g>
		<path class="st0" d="M344.31,396.85c-4.14,0-7.5,3.36-7.5,7.5v32.08c0,4.14,3.36,7.5,7.5,7.5s7.5-3.36,7.5-7.5v-32.08
			C351.81,400.21,348.45,396.85,344.31,396.85z"/>
	</g>
</g>
</svg>
