<?xml version="1.0" encoding="utf-8"?>
<!-- Generator: Adobe Illustrator 24.0.3, SVG Export Plug-In . SVG Version: 6.00 Build 0)  -->
<svg version="1.1" id="Capa_1" xmlns="http://www.w3.org/2000/svg" xmlns:xlink="http://www.w3.org/1999/xlink" x="0px" y="0px"
	 viewBox="0 0 512 512" style="enable-background:new 0 0 512 512;" xml:space="preserve">
<style type="text/css">
	.st0{fill:#EC8213;}
</style>
<g>
	<g>
		<path class="st0" d="M485.34,458.6h-7.5V227.98c0-10.48-8.53-19.01-19.01-19.01H322.74V25.53c0-14.03-11.42-25.44-25.45-25.44
			H59.6c-14.03,0-25.44,11.41-25.44,25.44V458.6h-7.5C11.96,458.6,0,470.56,0,485.26c0,14.7,11.96,26.66,26.66,26.66h458.69
			c14.7,0,26.66-11.96,26.66-26.66C512,470.56,500.04,458.6,485.34,458.6L485.34,458.6z M49.16,25.53c0-5.76,4.69-10.44,10.44-10.44
			h237.69c5.76,0,10.45,4.69,10.45,10.44v183.44h-64.02c-10.48,0-19.01,8.53-19.01,19.01v172.48c0,4.14,3.36,7.5,7.5,7.5
			s7.5-3.36,7.5-7.5V227.98c0-2.21,1.8-4.01,4.01-4.01h215.11c2.21,0,4.01,1.8,4.01,4.01V458.6H239.7v-23.07
			c0-4.14-3.36-7.5-7.5-7.5s-7.5,3.36-7.5,7.5v23.07H49.16V25.53z M485.34,496.92H26.66c-6.43,0-11.66-5.23-11.66-11.66
			s5.23-11.66,11.66-11.66h458.69c6.43,0,11.66,5.23,11.66,11.66S491.77,496.92,485.34,496.92z"/>
		<path class="st0" d="M117.33,45.79H86.56c-8.19,0-14.86,6.67-14.86,14.86v30.77c0,8.19,6.67,14.86,14.86,14.86h30.77
			c8.19,0,14.86-6.67,14.86-14.86V60.65C132.19,52.45,125.52,45.79,117.33,45.79z M117.19,91.28h-30.5v-30.5h30.5V91.28z"/>
		<path class="st0" d="M193.84,45.79h-30.77c-8.19,0-14.86,6.67-14.86,14.86v30.77c0,8.19,6.67,14.86,14.86,14.86h30.77
			c8.2,0,14.86-6.67,14.86-14.86V60.65C208.7,52.45,202.03,45.79,193.84,45.79L193.84,45.79z M193.7,91.28h-30.5v-30.5h30.5V91.28z"
			/>
		<path class="st0" d="M239.57,106.28h30.77c8.2,0,14.86-6.67,14.86-14.86V60.65c0-8.19-6.67-14.86-14.86-14.86h-30.77
			c-8.2,0-14.86,6.67-14.86,14.86v30.77C224.7,99.62,231.37,106.28,239.57,106.28L239.57,106.28z M239.71,60.79h30.5v30.5h-30.5
			V60.79z"/>
		<path class="st0" d="M117.33,139.41H86.56c-8.19,0-14.86,6.67-14.86,14.86v30.77c0,8.19,6.67,14.86,14.86,14.86h30.77
			c8.19,0,14.86-6.67,14.86-14.86v-30.77C132.19,146.08,125.52,139.41,117.33,139.41z M117.19,184.91h-30.5v-30.5h30.5V184.91z"/>
		<path class="st0" d="M193.84,139.41h-30.77c-8.19,0-14.86,6.67-14.86,14.86v30.77c0,8.19,6.67,14.86,14.86,14.86h30.77
			c8.2,0,14.86-6.67,14.86-14.86v-30.77C208.7,146.08,202.03,139.41,193.84,139.41L193.84,139.41z M193.7,184.91h-30.5v-30.5h30.5
			V184.91z"/>
		<path class="st0" d="M239.57,199.91h30.77c8.2,0,14.86-6.67,14.86-14.86v-30.77c0-8.19-6.67-14.86-14.86-14.86h-30.77
			c-8.2,0-14.86,6.67-14.86,14.86v30.77C224.7,193.24,231.37,199.91,239.57,199.91L239.57,199.91z M239.71,154.41h30.5v30.5h-30.5
			V154.41z"/>
		<path class="st0" d="M117.33,233.04H86.56c-8.19,0-14.86,6.67-14.86,14.86v30.77c0,8.2,6.67,14.86,14.86,14.86h30.77
			c8.19,0,14.86-6.67,14.86-14.86V247.9C132.19,239.7,125.52,233.04,117.33,233.04L117.33,233.04z M117.19,278.53h-30.5v-30.5h30.5
			V278.53z"/>
		<path class="st0" d="M193.84,233.04h-30.77c-8.19,0-14.86,6.67-14.86,14.86v30.77c0,8.2,6.67,14.86,14.86,14.86h30.77
			c8.2,0,14.86-6.67,14.86-14.86V247.9C208.7,239.7,202.03,233.04,193.84,233.04L193.84,233.04z M193.7,278.53h-30.5v-30.5h30.5
			V278.53z"/>
		<path class="st0" d="M117.33,326.66H86.56c-8.19,0-14.86,6.67-14.86,14.86v30.77c0,8.2,6.67,14.86,14.86,14.86h30.77
			c8.19,0,14.86-6.67,14.86-14.86v-30.77C132.19,333.33,125.52,326.66,117.33,326.66z M117.19,372.16h-30.5v-30.5h30.5V372.16z"/>
		<path class="st0" d="M193.84,326.66h-30.77c-8.19,0-14.86,6.67-14.86,14.86v30.77c0,8.2,6.67,14.86,14.86,14.86h30.77
			c8.2,0,14.86-6.67,14.86-14.86v-30.77C208.7,333.33,202.03,326.66,193.84,326.66L193.84,326.66z M193.7,372.16h-30.5v-30.5h30.5
			V372.16z"/>
		<path class="st0" d="M270.16,302.88h29.14c7.07,0,12.82-5.75,12.82-12.82v-28.4c0-7.07-5.75-12.82-12.82-12.82h-29.14
			c-7.07,0-12.82,5.75-12.82,12.82v28.4C257.34,297.13,263.09,302.88,270.16,302.88z M272.34,263.85h24.77v24.03h-24.77V263.85z"/>
		<path class="st0" d="M270.16,364.19h29.14c7.07,0,12.82-5.75,12.82-12.82v-28.4c0-7.07-5.75-12.82-12.82-12.82h-29.14
			c-7.07,0-12.82,5.75-12.82,12.82v28.4C257.34,358.44,263.09,364.19,270.16,364.19z M272.34,325.16h24.77v24.03h-24.77V325.16z"/>
		<path class="st0" d="M270.16,425.5h29.14c7.07,0,12.82-5.75,12.82-12.82v-28.4c0-7.07-5.75-12.82-12.82-12.82h-29.14
			c-7.07,0-12.82,5.75-12.82,12.82v28.4C257.34,419.75,263.09,425.5,270.16,425.5z M272.34,386.46h24.77v24.03h-24.77V386.46z"/>
		<path class="st0" d="M336.7,302.88h29.14c7.07,0,12.82-5.75,12.82-12.82v-28.4c0-7.07-5.75-12.82-12.82-12.82H336.7
			c-7.07,0-12.82,5.75-12.82,12.82v28.4C323.89,297.13,329.64,302.88,336.7,302.88z M338.89,263.85h24.77v24.03h-24.77V263.85z"/>
		<path class="st0" d="M336.7,364.19h29.14c7.07,0,12.82-5.75,12.82-12.82v-28.4c0-7.07-5.75-12.82-12.82-12.82H336.7
			c-7.07,0-12.82,5.75-12.82,12.82v28.4C323.89,358.44,329.64,364.19,336.7,364.19z M338.89,325.16h24.77v24.03h-24.77V325.16z"/>
		<path class="st0" d="M336.7,425.5h29.14c7.07,0,12.82-5.75,12.82-12.82v-28.4c0-7.07-5.75-12.82-12.82-12.82H336.7
			c-7.07,0-12.82,5.75-12.82,12.82v28.4C323.89,419.75,329.64,425.5,336.7,425.5z M338.89,386.46h24.77v24.03h-24.77V386.46z"/>
		<path class="st0" d="M403.25,302.88h29.14c7.07,0,12.82-5.75,12.82-12.82v-28.4c0-7.07-5.75-12.82-12.82-12.82h-29.14
			c-7.07,0-12.82,5.75-12.82,12.82v28.4C390.43,297.13,396.18,302.88,403.25,302.88z M405.43,263.85h24.77v24.03h-24.77V263.85z"/>
		<path class="st0" d="M403.25,364.19h29.14c7.07,0,12.82-5.75,12.82-12.82v-28.4c0-7.07-5.75-12.82-12.82-12.82h-29.14
			c-7.07,0-12.82,5.75-12.82,12.82v28.4C390.43,358.44,396.18,364.19,403.25,364.19z M405.43,325.16h24.77v24.03h-24.77V325.16z"/>
		<path class="st0" d="M403.25,425.5h29.14c7.07,0,12.82-5.75,12.82-12.82v-28.4c0-7.07-5.75-12.82-12.82-12.82h-29.14
			c-7.07,0-12.82,5.75-12.82,12.82v28.4C390.43,419.75,396.18,425.5,403.25,425.5z M405.43,386.46h24.77v24.03h-24.77V386.46z"/>
		<path class="st0" d="M409.22,173.79c5.14,3.75,12.05,3.76,17.2,0c12.97-9.47,44.09-35.44,52.87-71.91
			c0.97-4.03-1.51-8.08-5.54-9.05c-4.03-0.96-8.08,1.51-9.05,5.54c-7.76,32.23-37.52,56.25-46.88,63.13
			c-11.79-8.65-48.79-39.04-48.79-78.9c0-26.9,21.89-48.79,48.79-48.79c21.13,0,39.76,13.48,46.36,33.53
			c1.29,3.93,5.53,6.08,9.47,4.78c3.93-1.29,6.08-5.53,4.78-9.47c-8.62-26.23-32.98-43.85-60.61-43.85
			c-35.17,0-63.79,28.61-63.79,63.79C354.03,129.81,396.27,164.33,409.22,173.79L409.22,173.79z"/>
		<path class="st0" d="M417.82,47.11c-19.56,0-35.48,15.91-35.48,35.48s15.91,35.48,35.48,35.48c19.56,0,35.48-15.91,35.48-35.48
			S437.38,47.11,417.82,47.11z M417.82,103.06c-11.29,0-20.48-9.19-20.48-20.48s9.18-20.48,20.48-20.48s20.48,9.19,20.48,20.48
			S429.11,103.06,417.82,103.06z"/>
	</g>
</g>
</svg>
