<?xml version="1.0" encoding="utf-8"?>
<!-- Generator: Adobe Illustrator 24.0.3, SVG Export Plug-In . SVG Version: 6.00 Build 0)  -->
<svg version="1.1" id="Capa_1" xmlns="http://www.w3.org/2000/svg" xmlns:xlink="http://www.w3.org/1999/xlink" x="0px" y="0px"
	 viewBox="0 0 512 512" style="enable-background:new 0 0 512 512;" xml:space="preserve">
<style type="text/css">
	.st0{fill:#EC8213;}
</style>
<g>
	<g>
		<path class="st0" d="M91.22,279.57c-20.45,0-40.51,7.01-56.47,19.73c-3.23,2.58-3.76,7.28-1.19,10.51
			c2.58,3.23,7.28,3.76,10.51,1.19c13.52-10.78,29.82-16.47,47.15-16.47c41.74,0,75.69,33.95,75.69,75.69
			c0,56.21-58.67,110.16-75.69,124.62c-17.03-14.45-75.69-68.33-75.69-124.62c0-13.61,3.65-26.96,10.56-38.6
			c2.11-3.55,0.94-8.14-2.61-10.25s-8.14-0.94-10.25,2.61c-8.28,13.94-12.66,29.93-12.66,46.23c0,72.78,82.56,137.5,86.07,140.22
			c1.35,1.04,2.96,1.56,4.58,1.56c1.61,0,3.23-0.52,4.58-1.56c3.51-2.72,86.07-67.44,86.07-140.22
			C181.87,320.23,141.2,279.57,91.22,279.57z"/>
	</g>
</g>
<g>
	<g>
		<path class="st0" d="M91.22,329.56c-22.42,0-40.65,18.24-40.65,40.65s18.24,40.65,40.65,40.65c22.42,0,40.65-18.24,40.65-40.65
			S113.63,329.56,91.22,329.56z M91.22,395.91c-14.17,0-25.69-11.53-25.69-25.69s11.53-25.69,25.69-25.69s25.69,11.53,25.69,25.69
			S105.39,395.91,91.22,395.91z"/>
	</g>
</g>
<g>
	<g>
		<path class="st0" d="M425.09,111.65c-47.61,0-86.34,38.73-86.34,86.34c0,29.31,13.85,60.71,41.17,93.34
			c20,23.89,39.76,39.27,40.59,39.92c1.35,1.04,2.96,1.56,4.58,1.56s3.23-0.52,4.58-1.56c1.03-0.8,25.45-19.83,47.46-48.48
			c2.52-3.27,1.9-7.97-1.38-10.49c-3.28-2.52-7.97-1.9-10.49,1.38c-15.31,19.93-32.23,35.24-40.17,41.99
			c-16.42-14-71.39-64.8-71.39-117.66c0-39.36,32.02-71.38,71.38-71.38s71.38,32.02,71.38,71.38c0,16.05-5.11,33.37-15.18,51.5
			c-2.01,3.61-0.71,8.16,2.9,10.17c3.61,2.01,8.17,0.7,10.17-2.9c11.32-20.38,17.06-40.15,17.06-58.77
			C511.43,150.38,472.7,111.65,425.09,111.65z"/>
	</g>
</g>
<g>
	<g>
		<path class="st0" d="M425.09,159.06c-21.47,0-38.93,17.46-38.93,38.93c0,21.47,17.46,38.93,38.93,38.93s38.93-17.46,38.93-38.93
			S446.56,159.06,425.09,159.06z M425.09,221.96c-13.22,0-23.97-10.76-23.97-23.97s10.76-23.97,23.97-23.97s23.97,10.76,23.97,23.97
			C449.06,211.21,438.31,221.96,425.09,221.96z"/>
	</g>
</g>
<g>
	<g>
		<path class="st0" d="M117.09,43.18c-19.92,0-36.13,16.21-36.13,36.13s16.21,36.13,36.13,36.13c19.92,0,36.13-16.21,36.13-36.13
			S137.01,43.18,117.09,43.18z M117.09,100.48c-11.67,0-21.17-9.5-21.17-21.17s9.5-21.17,21.17-21.17s21.17,9.5,21.17,21.17
			C138.26,90.98,128.76,100.48,117.09,100.48z"/>
	</g>
</g>
<g>
	<g>
		<path class="st0" d="M117.09,0C73.36,0,37.78,35.58,37.78,79.31c0,13.69,3.4,28.13,10.1,42.91c1.71,3.76,6.14,5.43,9.9,3.72
			c3.76-1.71,5.43-6.14,3.72-9.9c-5.82-12.82-8.76-25.18-8.76-36.73c0-35.48,28.87-64.35,64.35-64.35s64.35,28.87,64.35,64.35
			c0,47.42-48.96,93.1-64.36,106.3c-8.31-7.1-26.36-23.62-41.19-44.75c-2.37-3.38-7.04-4.2-10.42-1.82
			c-3.38,2.37-4.2,7.04-1.83,10.42c21.22,30.22,47.74,50.91,48.86,51.77c1.35,1.04,2.96,1.56,4.58,1.56s3.23-0.52,4.58-1.56
			c0.76-0.59,18.81-14.64,37.07-36.46c24.99-29.85,37.66-58.6,37.66-85.45C196.4,35.58,160.82,0,117.09,0z"/>
	</g>
</g>
<g>
	<g>
		<path class="st0" d="M217.74,235.51l-9.14-3.99c-3.79-1.65-8.19,0.07-9.85,3.86c-1.65,3.79,0.07,8.2,3.86,9.85l9.14,3.99
			c0.98,0.43,1.99,0.63,2.99,0.63c2.88,0,5.63-1.68,6.86-4.48C223.25,241.57,221.53,237.16,217.74,235.51z"/>
	</g>
</g>
<g>
	<g>
		<path class="st0" d="M363.93,299.41l-9.14-3.99c-3.79-1.65-8.19,0.07-9.85,3.86c-1.65,3.79,0.07,8.2,3.86,9.85l9.14,3.99
			c0.98,0.43,1.99,0.63,2.99,0.63c2.88,0,5.63-1.67,6.86-4.48C369.44,305.48,367.72,301.07,363.93,299.41z"/>
	</g>
</g>
<g>
	<g>
		<path class="st0" d="M181.19,219.53l-9.14-3.99c-3.79-1.65-8.19,0.07-9.85,3.86c-1.65,3.79,0.07,8.19,3.86,9.85l9.14,3.99
			c0.98,0.43,1.99,0.63,2.99,0.63c2.88,0,5.63-1.68,6.86-4.49C186.7,225.59,184.98,221.18,181.19,219.53z"/>
	</g>
</g>
<g>
	<g>
		<path class="st0" d="M144.64,203.55l-9.14-3.99c-3.79-1.65-8.19,0.07-9.85,3.86c-1.65,3.79,0.07,8.2,3.86,9.85l9.14,3.99
			c0.98,0.43,1.99,0.63,2.99,0.63c2.88,0,5.63-1.68,6.86-4.49C150.15,209.62,148.43,205.21,144.64,203.55z"/>
	</g>
</g>
<g>
	<g>
		<path class="st0" d="M400.48,315.39l-9.14-3.99c-3.78-1.65-8.19,0.07-9.85,3.86s0.07,8.19,3.86,9.85l9.14,3.99
			c0.98,0.43,1.99,0.63,2.99,0.63c2.88,0,5.63-1.67,6.86-4.48C405.99,321.45,404.27,317.05,400.48,315.39z"/>
	</g>
</g>
<g>
	<g>
		<path class="st0" d="M327.39,283.44l-9.14-3.99c-3.79-1.65-8.2,0.07-9.85,3.86c-1.65,3.79,0.07,8.2,3.86,9.85l9.14,3.99
			c0.98,0.43,1.99,0.63,2.99,0.63c2.88,0,5.63-1.67,6.86-4.48C332.9,289.5,331.17,285.09,327.39,283.44z"/>
	</g>
</g>
<g>
	<g>
		<path class="st0" d="M290.84,267.46l-9.14-3.99c-3.79-1.65-8.2,0.07-9.85,3.86c-1.65,3.79,0.07,8.2,3.86,9.85l9.14,3.99
			c0.98,0.43,1.99,0.63,2.99,0.63c2.88,0,5.63-1.68,6.86-4.48C296.35,273.52,294.62,269.11,290.84,267.46z"/>
	</g>
</g>
<g>
	<g>
		<path class="st0" d="M254.29,251.48l-9.14-3.99c-3.78-1.65-8.19,0.07-9.85,3.86s0.07,8.19,3.86,9.85l9.14,3.99
			c0.97,0.43,1.99,0.63,2.99,0.63c2.88,0,5.63-1.67,6.86-4.48C259.8,257.55,258.07,253.14,254.29,251.48z"/>
	</g>
</g>
<g>
	<g>
		<path class="st0" d="M136.4,491.07c-1.94-3.64-6.47-5.03-10.12-3.08l-8.8,4.69c-3.64,1.94-5.03,6.47-3.08,10.12
			c1.35,2.52,3.93,3.96,6.61,3.96c1.19,0,2.39-0.28,3.51-0.88l8.8-4.69C136.96,499.24,138.34,494.71,136.4,491.07z"/>
	</g>
</g>
<g>
	<g>
		<path class="st0" d="M171.6,472.3c-1.94-3.64-6.47-5.02-10.12-3.08l-8.8,4.69c-3.65,1.94-5.02,6.47-3.08,10.12
			c1.35,2.52,3.93,3.96,6.61,3.96c1.19,0,2.39-0.28,3.51-0.88l8.8-4.69C172.16,480.48,173.54,475.95,171.6,472.3z"/>
	</g>
</g>
<g>
	<g>
		<path class="st0" d="M206.8,453.54c-1.94-3.65-6.47-5.03-10.12-3.08l-8.8,4.69c-3.65,1.94-5.02,6.47-3.08,10.12
			c1.35,2.52,3.93,3.96,6.61,3.96c1.19,0,2.39-0.28,3.51-0.88l8.8-4.69C207.36,461.72,208.74,457.19,206.8,453.54z"/>
	</g>
</g>
<g>
	<g>
		<path class="st0" d="M382.8,359.73c-1.94-3.65-6.47-5.03-10.12-3.08l-8.8,4.69c-3.64,1.94-5.02,6.47-3.08,10.12
			c1.35,2.52,3.93,3.96,6.61,3.96c1.19,0,2.39-0.28,3.51-0.88l8.8-4.69C383.36,367.91,384.74,363.38,382.8,359.73z"/>
	</g>
</g>
<g>
	<g>
		<path class="st0" d="M418,340.97c-1.94-3.65-6.47-5.03-10.12-3.08l-8.8,4.69c-3.64,1.94-5.02,6.47-3.08,10.12
			c1.35,2.52,3.93,3.96,6.61,3.96c1.19,0,2.39-0.28,3.51-0.88l8.8-4.69C418.56,349.15,419.94,344.62,418,340.97z"/>
	</g>
</g>
<g>
	<g>
		<path class="st0" d="M347.6,378.5c-1.94-3.65-6.47-5.03-10.12-3.08l-8.8,4.69c-3.64,1.94-5.02,6.47-3.08,10.12
			c1.35,2.52,3.93,3.96,6.61,3.96c1.19,0,2.39-0.28,3.51-0.88l8.8-4.69C348.16,386.67,349.54,382.14,347.6,378.5z"/>
	</g>
</g>
<g>
	<g>
		<path class="st0" d="M242,434.78c-1.94-3.64-6.47-5.03-10.12-3.08l-8.8,4.69c-3.65,1.94-5.02,6.47-3.08,10.12
			c1.35,2.52,3.93,3.96,6.61,3.96c1.19,0,2.39-0.28,3.51-0.88l8.8-4.69C242.56,442.95,243.94,438.42,242,434.78z"/>
	</g>
</g>
<g>
	<g>
		<path class="st0" d="M312.4,397.26c-1.94-3.64-6.47-5.03-10.12-3.08l-8.8,4.69c-3.64,1.94-5.02,6.47-3.08,10.12
			c1.35,2.52,3.93,3.96,6.61,3.96c1.19,0,2.39-0.28,3.51-0.88l8.8-4.69C312.96,405.43,314.34,400.9,312.4,397.26z"/>
	</g>
</g>
<g>
	<g>
		<path class="st0" d="M277.2,416.02c-1.94-3.65-6.47-5.03-10.12-3.08l-8.8,4.69c-3.65,1.94-5.02,6.47-3.08,10.12
			c1.35,2.52,3.93,3.96,6.61,3.96c1.19,0,2.39-0.28,3.51-0.88l8.8-4.69C277.76,424.19,279.14,419.67,277.2,416.02z"/>
	</g>
</g>
</svg>
