<?xml version="1.0" encoding="utf-8"?>
<!-- Generator: Adobe Illustrator 24.0.3, SVG Export Plug-In . SVG Version: 6.00 Build 0)  -->
<svg version="1.1" id="Capa_1" xmlns="http://www.w3.org/2000/svg" xmlns:xlink="http://www.w3.org/1999/xlink" x="0px" y="0px"
	 viewBox="0 0 512 512" style="enable-background:new 0 0 512 512;" xml:space="preserve">
<style type="text/css">
	.st0{fill:#EC8213;}
</style>
<g>
	<path class="st0" d="M331,466.94h30v-45h-30v-15.06h15v-75H211v15h120v45H166v-45h30v-15h-45v75h15v15.06h-30v45h30V497H0v15h248.5
		v-15H181v-30.06h90v-15H151v-15h195v15h-60v15h30V497h-52.5v15H512v-15H331V466.94z M181,406.87h135v15.06H181V406.87z"/>
	<path class="st0" d="M497,241c0,28.95-23.55,52.5-52.5,52.5h-62c-28.95,0-52.5-23.55-52.5-52.5V127.5h-15V241
		c0,37.22,30.28,67.5,67.5,67.5h8.5v57.56c-9.27,9.47-15,22.42-15,36.69s5.73,27.22,15,36.69V482h15v-31.83
		c4.66,2.22,9.71,3.77,15,4.53V482h15v-27.29c8.25-1.18,16.08-4.29,22.95-9.19l-8.71-12.21c-6.37,4.54-13.89,6.94-21.74,6.94
		c-20.68,0-37.5-16.82-37.5-37.5s16.82-37.5,37.5-37.5s37.5,16.82,37.5,37.5c0,7.85-2.4,15.37-6.94,21.74l12.21,8.71
		c6.36-8.93,9.73-19.45,9.73-30.45c0-26.4-19.59-48.3-45-51.96V308.5h8.5c37.22,0,67.5-30.28,67.5-67.5v-15h-15L497,241L497,241z
		 M421,350.79c-5.29,0.76-10.34,2.31-15,4.53V308.5h15V350.79z"/>
	<path class="st0" d="M444.5,30h-62C345.28,30,315,60.28,315,97.5v15h15v-15c0-28.95,23.55-52.5,52.5-52.5h62
		c28.95,0,52.5,23.55,52.5,52.5V211h15V97.5C512,60.28,481.72,30,444.5,30z"/>
	<path class="st0" d="M36.57,283.99C22.66,269.46,15,250.37,15,230.25c0-42.86,34.87-77.72,77.72-77.72
		c18.23,0,35.96,6.44,49.91,18.15l9.64-11.49c-16.65-13.96-37.79-21.65-59.55-21.65C41.6,137.53,0,179.12,0,230.25
		c0,24.01,9.14,46.77,25.74,64.11L36.57,283.99z"/>
	<path class="st0" d="M100.22,307.61v-19.02l28.11-16.23l-7.5-12.99l-20.61,11.9v-41.01h-15v77.35
		c-13.88-1.32-27.01-6.29-38.36-14.6L38,305.1c13.94,10.21,30.14,16.21,47.23,17.57v54.89l-37.77-21.81l-7.5,12.99l45.27,26.14V482
		h15V322.67c47.63-3.83,85.22-43.82,85.22-92.42c0-21.75-7.69-42.9-21.65-59.55l-11.49,9.64c11.7,13.95,18.15,31.68,18.15,49.91
		C170.44,270.58,139.57,303.82,100.22,307.61L100.22,307.61z"/>
	<path class="st0" d="M222.56,60h15V45h-15V30h-15v15h15V60z"/>
	<path class="st0" d="M241,361.87h45v15h-45V361.87z"/>
	<path class="st0" d="M70.22,175.03h15v15h-15V175.03z"/>
	<path class="st0" d="M138.53,222.95l14.51-3.82c-3.24-12.33-9.45-22.96-17.96-30.73c-9.58-8.75-21.63-13.37-34.86-13.37v15
		C122.08,190.03,134.35,207.04,138.53,222.95L138.53,222.95z"/>
	<path class="st0" d="M421,380.25h15v15h-15V380.25z"/>
	<path class="st0" d="M482,97.5c0-20.68-16.82-37.5-37.5-37.5v15c12.2,0,22.5,10.3,22.5,22.5V120h15V97.5z"/>
	<path class="st0" d="M301,361.87h15v15h-15V361.87z"/>
	<path class="st0" d="M467,135h15v15h-15V135z"/>
	<path class="st0" d="M345,211h15v15h-15V211z"/>
	<path class="st0" d="M436,395.25h15v15h-15V395.25z"/>
	<path class="st0" d="M382.5,278.5v-15c-12.2,0-22.5-10.3-22.5-22.5h-15C345,261.68,361.82,278.5,382.5,278.5z"/>
	<path class="st0" d="M421,161.75h15v15h-15V161.75z"/>
	<path class="st0" d="M391,161.75h15v15h-15V161.75z"/>
	<path class="st0" d="M215.06,105c28.95,0,52.5-23.55,52.5-52.5S244.01,0,215.06,0s-52.5,23.55-52.5,52.5S186.11,105,215.06,105z
		 M215.06,15c20.68,0,37.5,16.82,37.5,37.5S235.73,90,215.06,90s-37.5-16.82-37.5-37.5S194.38,15,215.06,15z"/>
</g>
</svg>
