<?xml version="1.0" encoding="utf-8"?>
<!-- Generator: Adobe Illustrator 24.0.3, SVG Export Plug-In . SVG Version: 6.00 Build 0)  -->
<svg version="1.1" id="Layer_1" xmlns="http://www.w3.org/2000/svg" xmlns:xlink="http://www.w3.org/1999/xlink" x="0px" y="0px"
	 viewBox="0 0 512 512" style="enable-background:new 0 0 512 512;" xml:space="preserve">
<style type="text/css">
	.st0{fill:#EC8213;}
</style>
<g>
	<path class="st0" d="M315.11,148.08c0-32.64-26.47-59.1-59.12-59.1s-59.1,26.47-59.1,59.12c0,32.64,26.47,59.1,59.11,59.1
		C288.63,207.16,315.07,180.72,315.11,148.08z M210.89,148.08c0-24.91,20.2-45.1,45.12-45.1s45.1,20.2,45.1,45.12
		c0,24.91-20.2,45.1-45.11,45.1C231.1,193.17,210.92,172.99,210.89,148.08z"/>
	<path class="st0" d="M493.31,484.28l-57.06-149.6c-1.04-2.71-3.64-4.5-6.54-4.5h-108c0.66-1.08,1.32-2.12,1.98-3.2
		c41.56-68.8,62.47-128.98,62.17-178.86c0.01-71.72-58.13-129.86-129.84-129.87c-71.71-0.01-129.85,58.11-129.87,129.82
		c-0.3,49.92,20.61,110.11,62.17,178.9c0.66,1.09,1.32,2.14,1.98,3.2h-108c-2.9,0-5.5,1.79-6.54,4.5l-57.06,149.6
		c-1.38,3.61,0.42,7.65,4.02,9.03c0.8,0.31,1.66,0.47,2.52,0.46h461.54c3.86,0.01,7-3.12,7-6.98
		C493.78,485.93,493.62,485.08,493.31,484.28L493.31,484.28z M140.14,148.08c0.01-63.99,51.89-115.85,115.88-115.84
		c63.99,0.01,115.85,51.89,115.84,115.88l0,0c0.6,99.43-92.36,222.07-115.86,251.48C232.5,370.2,139.54,247.6,140.14,148.08
		L140.14,148.08z M250.67,415.2c2.5,2.94,6.92,3.3,9.87,0.8c0.29-0.24,0.55-0.51,0.8-0.8c18.59-22.64,35.82-46.36,51.6-71.04h111.95
		l8.96,23.5l-218.76,77.8L137.1,344.15h61.96C214.85,368.83,232.08,392.56,250.67,415.2L250.67,415.2z M214.83,460.4h0.04
		L345.38,414L396,479.77H160.4L214.83,460.4z M87.11,344.15h32.32L201.2,450.4l-82.57,29.37H35.39L87.11,344.15z M413.68,479.77
		l-54.44-70.73l79.6-28.31l37.77,99.04H413.68z"/>
</g>
</svg>
