<?xml version="1.0" encoding="utf-8"?>
<!-- Generator: Adobe Illustrator 24.0.3, SVG Export Plug-In . SVG Version: 6.00 Build 0)  -->
<svg version="1.1" id="Capa_1" xmlns="http://www.w3.org/2000/svg" xmlns:xlink="http://www.w3.org/1999/xlink" x="0px" y="0px"
	 viewBox="0 0 488 488" style="enable-background:new 0 0 488 488;" xml:space="preserve">
<style type="text/css">
	.st0{fill:#EC8213;}
</style>
<g>
	<g>
		<path class="st0" d="M221.58,426.71c-1.19-1.16-2.72-1.92-4.37-2.17v-0.01l-17.89-2.74l-8.07-17.24c-1.87-4-6.63-5.73-10.63-3.86
			c-1.7,0.79-3.07,2.16-3.86,3.86l-8.07,17.24l-17.89,2.74c-4.37,0.67-7.37,4.75-6.7,9.12c0.25,1.65,1.01,3.17,2.18,4.37
			l13.18,13.54l-3.13,19.2c-0.72,4.36,2.24,8.48,6.6,9.19c1.77,0.29,3.6-0.02,5.17-0.89l15.9-8.79l15.9,8.8
			c3.87,2.14,8.73,0.74,10.87-3.13c0.87-1.57,1.19-3.39,0.9-5.17l-3.13-19.2l13.18-13.54C224.81,434.86,224.74,429.79,221.58,426.71
			z M194.27,443.29c-1.77,1.82-2.57,4.36-2.17,6.86l1.13,6.94l-5.36-2.98c-2.41-1.33-5.34-1.33-7.74,0l-5.36,2.98l1.13-6.94
			c0.41-2.5-0.4-5.05-2.17-6.86l-5.15-5.3l6.75-1.04c2.64-0.41,4.9-2.1,6.03-4.52l2.64-5.6l2.64,5.6c1.13,2.42,3.39,4.11,6.03,4.52
			l6.75,1.04L194.27,443.29z"/>
	</g>
</g>
<g>
	<g>
		<path class="st0" d="M325.58,390.92c-1.19-1.16-2.72-1.92-4.37-2.17v-0.01l-28.94-4.43l-13.02-27.74c-1.88-4-6.64-5.72-10.64-3.84
			c-1.69,0.79-3.04,2.15-3.84,3.84l-13.02,27.74l-28.94,4.43c-4.37,0.67-7.37,4.75-6.7,9.12c0.25,1.65,1.01,3.17,2.18,4.37
			l21.18,21.71l-5.02,30.75c-0.71,4.36,2.25,8.47,6.61,9.18c1.77,0.29,3.59-0.03,5.16-0.89l25.79-14.3l25.79,14.26
			c3.85,2.16,8.73,0.79,10.89-3.06c0.89-1.59,1.21-3.43,0.92-5.23l-5.06-30.71l21.18-21.7C328.81,399.07,328.74,394,325.58,390.92z
			 M290.27,415.61c-1.77,1.82-2.58,4.37-2.17,6.87l3.02,18.48l-15.25-8.43c-2.41-1.33-5.33-1.33-7.74,0l-15.25,8.43l3.02-18.48
			c0.41-2.51-0.4-5.05-2.17-6.87l-13.13-13.46l17.78-2.72c2.64-0.39,4.9-2.09,6.03-4.5l7.59-16.17l7.59,16.17
			c1.13,2.42,3.39,4.11,6.03,4.5l17.78,2.72L290.27,415.61z"/>
	</g>
</g>
<g>
	<g>
		<path class="st0" d="M480,47.94h-36.69l24-24H480c4.42,0,8-3.58,8-8s-3.58-8-8-8H8c-4.42,0-8,3.58-8,8s3.58,8,8,8h36.69l-24,24H8
			c-4.42,0-8,3.58-8,8s3.58,8,8,8h24.33L32,94.47l-14.56,15.26c-13.28,13.93-12.77,35.97,1.14,49.27l32.64,31.2
			c1.49,1.43,3.47,2.22,5.53,2.22h0.18c0.96-0.04,1.9-0.26,2.78-0.62l89.18,128.13l-44.48,133.44c-1.4,4.2,0.88,8.73,5.07,10.13
			s8.73-0.88,10.13-5.07l40.7-122.1l25.14,36.14c2.52,3.63,7.51,4.52,11.14,2s4.52-7.51,2-11.14l-32-45.94l48.98-146.96
			c0.25-0.81,0.36-1.65,0.34-2.5h48.17c-0.03,0.92,0.11,1.84,0.41,2.72l34.79,96.37l-33.82,48.33c-2.64,3.54-1.91,8.55,1.63,11.2
			s8.55,1.91,11.2-1.63c0.1-0.13,0.19-0.26,0.28-0.39l27.37-39.1l62.56,173.23c1.14,3.17,4.15,5.28,7.52,5.28
			c0.93,0,1.85-0.16,2.72-0.48c4.15-1.5,6.3-6.09,4.8-10.24l-66.4-183.82l70.99-101.41l50.9,17.4l-54.8,220.62
			c-1.07,4.29,1.55,8.63,5.83,9.69c0,0,0.01,0,0.01,0c0.64,0.15,1.29,0.23,1.95,0.23c3.67,0,6.88-2.51,7.76-6.07l54.5-219.43
			c0.55,0.15,1.11,0.24,1.67,0.28c3.42,0,6.46-2.18,7.57-5.42l14.62-42.71c6.22-18.21-3.49-38.02-21.7-44.25L456,98.18V63.94h24
			c4.42,0,8-3.58,8-8S484.42,47.94,480,47.94z M444.69,23.93L424,44.62l-20.69-20.69C403.31,23.94,444.69,23.94,444.69,23.93z
			 M404.69,47.94h-41.38L384,27.25L404.69,47.94z M364.69,23.93L344,44.62l-20.69-20.69C323.31,23.94,364.69,23.94,364.69,23.93z
			 M324.69,47.94h-41.38L304,27.25L324.69,47.94z M284.69,23.93L264,44.62l-20.69-20.69C243.31,23.94,284.69,23.94,284.69,23.93z
			 M244.69,47.94h-41.38L224,27.25L244.69,47.94z M204.69,23.93L184,44.62l-20.69-20.69C163.31,23.94,204.69,23.94,204.69,23.93z
			 M164.69,47.94h-41.38L144,27.25L164.69,47.94z M124.69,23.93L104,44.62L83.31,23.93H124.69z M64,27.25l20.69,20.69H43.31
			L64,27.25z M56.49,173.1L29.6,147.44c-7.53-7.2-7.8-19.13-0.62-26.66l18.22-19.01c3.44-3.62,8.18-5.72,13.17-5.83h0.43
			c4.85-0.01,9.52,1.86,13.02,5.22l26.86,25.64L56.49,173.1z M155.2,301.03L71.43,180.61l33.21-34.78l83.06,52.86
			c0.45,0.25,0.92,0.46,1.4,0.63L155.2,301.03z M199.59,167.85l-5.34,16l-78.34-49.85l1.87-1.96c3.05-3.2,2.93-8.26-0.26-11.31l0,0
			l-32.64-31.2c-6.64-6.45-15.63-9.91-24.88-9.6c-4.07,0.12-8.08,0.96-11.86,2.47l0.19-18.47H232v16h-5.14
			c-19.24,0.03-34.83,15.62-34.86,34.86v45.14C192.01,164.18,195.35,167.66,199.59,167.85z M272,151.93h-64v-37.14
			c0.02-10.41,8.45-18.84,18.86-18.86h26.29c10.41,0.02,18.84,8.45,18.86,18.86V151.93z M387.28,111.52l-14.61,42.72
			c-0.69,2.01-0.55,4.21,0.38,6.11c0.12,0.23,0.33,0.38,0.46,0.61l-63.02,90.03l-30.02-83.15c4.21-0.22,7.51-3.69,7.53-7.9v-45.14
			c-0.03-19.24-15.62-34.83-34.86-34.86H248v-16h192v28.8l-8.46-2.9C413.34,83.64,393.54,93.33,387.28,111.52z M463.02,137.41
			l-12,35.14l-60.62-20.71l12-35.1c3.35-9.87,14.07-15.15,23.94-11.8c0.02,0.01,0.04,0.01,0.06,0.02l24.88,8.5
			C461.13,116.84,466.38,127.56,463.02,137.41z"/>
	</g>
</g>
</svg>
