<?xml version="1.0" encoding="utf-8"?>
<!-- Generator: Adobe Illustrator 24.0.3, SVG Export Plug-In . SVG Version: 6.00 Build 0)  -->
<svg version="1.1" id="Capa_1" xmlns="http://www.w3.org/2000/svg" xmlns:xlink="http://www.w3.org/1999/xlink" x="0px" y="0px"
	 viewBox="0 0 512 512" style="enable-background:new 0 0 512 512;" xml:space="preserve">
<style type="text/css">
	.st0{fill:#EC8213;}
</style>
<g>
	<path class="st0" d="M504.5,182.24h-9.07v-9.08c0-4.14-3.36-7.5-7.5-7.5s-7.5,3.36-7.5,7.5v9.08h-9.07c-4.14,0-7.5,3.36-7.5,7.5
		v24.84c0,0.43-0.35,0.78-0.78,0.78H405.1c-4.14,0-7.5,3.36-7.5,7.5v9.07h-9.07c-4.14,0-7.5,3.36-7.5,7.5s3.36,7.5,7.5,7.5h9.07V256
		c0,4.14,3.36,7.5,7.5,7.5h57.98c0.43,0,0.78,0.35,0.78,0.78v132.53c0,0.43-0.35,0.78-0.78,0.78h-149.1c-0.43,0-0.78-0.35-0.78-0.78
		V355.4c0-4.14-3.36-7.5-7.5-7.5h-9.07v-9.07c0-4.14-3.36-7.5-7.5-7.5s-7.5,3.36-7.5,7.5v9.07h-9.07c-4.14,0-7.5,3.36-7.5,7.5v41.42
		c0,0.43-0.35,0.78-0.78,0.78h-149.1c-0.43,0-0.78-0.35-0.78-0.78V264.28c0-0.43,0.35-0.78,0.78-0.78h149.1
		c0.43,0,0.78,0.35,0.78,0.78v24.85c0,4.14,3.36,7.5,7.5,7.5h9.07v9.07c0,4.14,3.36,7.5,7.5,7.5s7.5-3.36,7.5-7.5v-9.07h9.07
		c4.14,0,7.5-3.36,7.5-7.5v-24.85c0-0.43,0.35-0.78,0.78-0.78h24.85c4.14,0,7.5-3.36,7.5-7.5v-9.07h9.07c4.14,0,7.5-3.36,7.5-7.5
		s-3.36-7.5-7.5-7.5h-9.07v-9.07c0-4.14-3.36-7.5-7.5-7.5h-24.85c-0.43,0-0.78-0.35-0.78-0.78v-24.85c0-4.14-3.36-7.5-7.5-7.5h-9.07
		v-9.07c0-4.14-3.36-7.5-7.5-7.5s-7.5,3.36-7.5,7.5v9.07h-9.07c-4.14,0-7.5,3.36-7.5,7.5v24.85c0,0.43-0.35,0.78-0.78,0.78H190.3
		c-4.14,0-7.5,3.36-7.5,7.5s3.36,7.5,7.5,7.5h73.98c8.7,0,15.78-7.08,15.78-15.78v-17.35h18.13v17.35c0,8.7,7.08,15.78,15.78,15.78
		h17.35v18.13h-17.35c-8.7,0-15.78,7.08-15.78,15.78v17.35h-18.13v-17.35c0-8.7-7.08-15.78-15.78-15.78h-149.1
		c-8.7,0-15.78,7.08-15.78,15.78v132.53c0,8.7,7.08,15.78,15.78,15.78h149.1c8.7,0,15.78-7.08,15.78-15.78V362.9h18.13v33.92
		c0,8.7,7.08,15.78,15.78,15.78h149.1c8.7,0,15.78-7.08,15.78-15.78V264.28c0-8.7-7.08-15.78-15.78-15.78H412.6v-18.13h50.48
		c8.7,0,15.78-7.08,15.78-15.78v-17.34H497v232.71c0,0.43-0.35,0.78-0.78,0.78H82.05c-0.43,0-0.78-0.35-0.78-0.78V15.78
		c0-0.43,0.35-0.78,0.78-0.78h324.62c4.14,0,7.5-3.36,7.5-7.5s-3.36-7.5-7.5-7.5H82.05c-1.72,0-3.38,0.29-4.93,0.8
		C76.11,0.29,74.97,0,73.77,0H57.2c-4.14,0-7.5,3.36-7.5,7.5s3.36,7.5,7.5,7.5h9.11c-0.01,0.26-0.04,0.52-0.04,0.78v414.17
		c0,0.26,0.03,0.52,0.04,0.78H57.2c-4.14,0-7.5,3.36-7.5,7.5s3.36,7.5,7.5,7.5h9.07v9.07c0,4.14,3.36,7.5,7.5,7.5s7.5-3.36,7.5-7.5
		v-9.11c0.26,0.01,0.52,0.04,0.78,0.04h414.17c0.26,0,0.52-0.03,0.78-0.04v9.11c0,4.14,3.36,7.5,7.5,7.5s7.5-3.36,7.5-7.5v-16.57
		c0-1.21-0.29-2.34-0.8-3.36c0.51-1.55,0.8-3.21,0.8-4.93V189.74C512,185.6,508.64,182.24,504.5,182.24L504.5,182.24z"/>
	<path class="st0" d="M496.22,0h-59.55c-4.14,0-7.5,3.36-7.5,7.5s3.36,7.5,7.5,7.5h59.55c0.43,0,0.78,0.35,0.78,0.78v100.2h-8.75
		c-0.11,0-0.21-0.02-0.32-0.02s-0.21,0.01-0.32,0.02l-8.75,0V48.92c0-8.7-7.08-15.78-15.78-15.78h-149.1
		c-8.7,0-15.78,7.08-15.78,15.78v67.05h-18.13V48.92c0-8.7-7.08-15.78-15.78-15.78h-149.1c-8.7,0-15.78,7.08-15.78,15.78v165.67
		c0,8.7,7.08,15.78,15.78,15.78h45.12c4.14,0,7.5-3.36,7.5-7.5s-3.36-7.5-7.5-7.5h-45.12c-0.43,0-0.78-0.35-0.78-0.78V48.92
		c0-0.43,0.35-0.78,0.78-0.78h149.1c0.43,0,0.78,0.35,0.78,0.78v74.55c0,4.14,3.36,7.5,7.5,7.5h9.07v9.07c0,4.14,3.36,7.5,7.5,7.5
		s7.5-3.36,7.5-7.5v-9.07h9.07c4.14,0,7.5-3.36,7.5-7.5V48.92c0-0.43,0.35-0.78,0.78-0.78h149.1c0.43,0,0.78,0.35,0.78,0.78v74.57
		c0,1.99,0.79,3.9,2.2,5.3c1.41,1.41,3.31,2.2,5.3,2.2h9.07v9.05c0,4.14,3.36,7.5,7.5,7.5s7.5-3.36,7.5-7.5v-9.05h9.07
		c4.14,0,7.5-3.36,7.5-7.5V15.78C512,7.08,504.92,0,496.22,0L496.22,0z"/>
	<path class="st0" d="M471.37,463.87c-4.14,0-7.5,3.36-7.5,7.5v9.07H114.4v-9.07c0-4.14-3.36-7.5-7.5-7.5s-7.5,3.36-7.5,7.5v33.13
		c0,4.14,3.36,7.5,7.5,7.5s7.5-3.36,7.5-7.5v-9.07h349.47v9.07c0,4.14,3.36,7.5,7.5,7.5s7.5-3.36,7.5-7.5v-33.13
		C478.87,467.22,475.51,463.87,471.37,463.87z"/>
	<path class="st0" d="M7.5,397.6c-4.14,0-7.5,3.36-7.5,7.5s3.36,7.5,7.5,7.5h33.13c4.14,0,7.5-3.36,7.5-7.5s-3.36-7.5-7.5-7.5h-9.07
		V48.13h9.07c4.14,0,7.5-3.36,7.5-7.5s-3.36-7.5-7.5-7.5H7.5c-4.14,0-7.5,3.36-7.5,7.5s3.36,7.5,7.5,7.5h9.07V397.6H7.5z"/>
	<path class="st0" d="M7.5,445.73h16.57c4.14,0,7.5-3.36,7.5-7.5s-3.36-7.5-7.5-7.5H7.5c-4.14,0-7.5,3.36-7.5,7.5
		C0,442.38,3.36,445.73,7.5,445.73z"/>
	<path class="st0" d="M7.5,15h16.57c4.14,0,7.5-3.36,7.5-7.5S28.21,0,24.07,0H7.5C3.36,0,0,3.36,0,7.5S3.36,15,7.5,15z"/>
	<path class="st0" d="M73.77,480.43c-4.14,0-7.5,3.36-7.5,7.5v16.57c0,4.14,3.36,7.5,7.5,7.5s7.5-3.36,7.5-7.5v-16.57
		C81.27,483.79,77.91,480.43,73.77,480.43z"/>
	<path class="st0" d="M504.5,480.43c-4.14,0-7.5,3.36-7.5,7.5v16.57c0,4.14,3.36,7.5,7.5,7.5s7.5-3.36,7.5-7.5v-16.57
		C512,483.79,508.64,480.43,504.5,480.43z"/>
	<path class="st0" d="M45.94,466.06c-2.93-2.93-7.68-2.93-10.61,0l-11.26,11.26l-11.26-11.26c-2.93-2.93-7.68-2.93-10.61,0
		c-2.93,2.93-2.93,7.68,0,10.61l11.26,11.26L2.2,499.2c-2.93,2.93-2.93,7.68,0,10.61c1.46,1.46,3.38,2.2,5.3,2.2s3.84-0.73,5.3-2.2
		l11.26-11.26l11.26,11.26c1.47,1.46,3.38,2.2,5.3,2.2s3.84-0.73,5.3-2.2c2.93-2.93,2.93-7.68,0-10.61l-11.26-11.26l11.26-11.26
		C48.87,473.74,48.87,468.99,45.94,466.06L45.94,466.06z"/>
</g>
</svg>
