<?xml version="1.0" encoding="utf-8"?>
<!-- Generator: Adobe Illustrator 24.0.3, SVG Export Plug-In . SVG Version: 6.00 Build 0)  -->
<svg version="1.1" id="Capa_1" xmlns="http://www.w3.org/2000/svg" xmlns:xlink="http://www.w3.org/1999/xlink" x="0px" y="0px"
	 viewBox="0 0 45 25.12" style="enable-background:new 0 0 45 25.12;" xml:space="preserve">
<style type="text/css">
	.st0{fill:#EB8323;}
</style>
<g>
	<g>
		<path class="st0" d="M30.83,13.89c0.1,0.16,0.29,0.26,0.48,0.25c0.2-0.01,0.37-0.12,0.48-0.28l4.9-6.27
			c0.2-0.24,0.56-0.28,0.81-0.08c0.23,0.2,0.27,0.53,0.1,0.78l-1.09,1.4l0,0c-0.2,0.2-0.21,0.51-0.02,0.72l0,0l1.1,1.4l3.48-4.43
			l-1.37-1.77l-0.26-0.34c-0.19-0.22-0.45-0.36-0.73-0.4h-2.09c-0.33,0-0.64,0.15-0.85,0.39l-5.83,7.47L30.83,13.89z"/>
		<path class="st0" d="M30.59,10.05l-1.4-1.78C29,8.02,29.05,7.67,29.3,7.48c0.25-0.19,0.61-0.14,0.8,0.11
			c0.02,0.02,0.03,0.04,0.04,0.07l1.16,1.47l1.37-1.76l-1.59-2.03c-0.21-0.31-0.57-0.49-0.95-0.46h-1.88
			C27.93,4.86,27.61,5,27.4,5.25l-1.66,2.11l3.48,4.44L30.59,10.05z"/>
		<path class="st0" d="M35.96,11.57c-0.11-0.15-0.28-0.24-0.47-0.24c-0.18,0-0.35,0.08-0.45,0.22l-4.95,6.36
			c-0.21,0.25-0.58,0.29-0.83,0.09c-0.23-0.2-0.26-0.54-0.07-0.78l1.11-1.43l0,0c0.1-0.1,0.15-0.23,0.15-0.37
			c0-0.13-0.05-0.25-0.13-0.34l0,0l-1.1-1.4l-3.49,4.46l1.95,2.46h3.05l6.15-7.86L35.96,11.57z"/>
		<path class="st0" d="M36.22,15.41l1.4,1.81c0.19,0.24,0.15,0.59-0.08,0.78c-0.27,0.2-0.64,0.14-0.83-0.13
			c-0.01-0.02-0.03-0.04-0.04-0.06l-1.18-1.49l-1.37,1.76l1.99,2.52h3.03l1.94-2.49l-3.48-4.46L36.22,15.41z"/>
		<path class="st0" d="M41.04,13.5c-0.41,0-0.75-0.33-0.75-0.74c0-0.41,0.33-0.75,0.74-0.75c0.41,0,0.75,0.32,0.75,0.73
			c0,0.41-0.33,0.75-0.74,0.75l0,0 M41.04,11.34c-0.77,0.01-1.39,0.64-1.38,1.41c0.01,0.77,0.64,1.39,1.41,1.38
			c0.76-0.01,1.38-0.63,1.38-1.39c-0.02-0.77-0.64-1.38-1.41-1.37"/>
		<path class="st0" d="M33.39,2.74c0.41,0,0.75,0.33,0.75,0.74c0,0.41-0.33,0.75-0.74,0.75c-0.41,0-0.75-0.33-0.75-0.74
			c0,0,0,0,0-0.01C32.65,3.08,32.98,2.74,33.39,2.74L33.39,2.74 M33.39,4.88c0.77,0.01,1.4-0.61,1.41-1.37
			c0-0.78-0.63-1.41-1.41-1.41c-0.78,0-1.41,0.63-1.41,1.41C32,4.27,32.63,4.89,33.39,4.88"/>
		<path class="st0" d="M33.39,21.28c0.41,0,0.75,0.33,0.75,0.74c0,0.41-0.33,0.75-0.74,0.75c-0.41,0-0.75-0.33-0.75-0.74
			c0,0,0,0,0-0.01C32.65,21.62,32.98,21.28,33.39,21.28L33.39,21.28 M33.39,23.42c0.77-0.01,1.39-0.64,1.38-1.41
			s-0.64-1.39-1.41-1.38c-0.76,0.01-1.38,0.63-1.38,1.39C31.99,22.8,32.62,23.43,33.39,23.42"/>
		<path class="st0" d="M24.98,12.73c0-0.41,0.34-0.74,0.75-0.73s0.74,0.34,0.73,0.75c0,0.41-0.33,0.73-0.74,0.73
			C25.31,13.48,24.98,13.15,24.98,12.73L24.98,12.73 M27.13,12.73c0.01-0.78-0.61-1.42-1.39-1.43c-0.78-0.01-1.42,0.61-1.43,1.39
			c-0.01,0.78,0.61,1.42,1.39,1.43c0.01,0,0.01,0,0.02,0C26.49,14.13,27.13,13.51,27.13,12.73C27.13,12.74,27.13,12.74,27.13,12.73"
			/>
		<path class="st0" d="M18.68,3.47H2.48v10.81c0,5.93,8.09,7.72,8.09,7.72l0,0c0,0,8.09-1.79,8.09-7.72L18.68,3.47z M18.28,3.88
			v10.41c0,1.25-0.41,2.47-1.18,3.46c-0.73,0.92-1.63,1.69-2.66,2.27c-1.21,0.7-2.51,1.23-3.87,1.58c-1.35-0.35-2.64-0.88-3.85-1.57
			c-1.03-0.58-1.94-1.35-2.67-2.27c-0.77-0.99-1.19-2.21-1.18-3.47V3.88H18.28z"/>
		<path class="st0" d="M12.54,6.94V5.95h-1.03v0.93h-0.39V5.95h-1.05v0.93H9.68V5.95H8.65v0.99l0.51,0.87
			c0.02,0.03,0.03,0.07,0.02,0.1v4.54h0.49v-1.63c0.07-0.44,0.47-0.76,0.92-0.73c0.45-0.03,0.84,0.29,0.92,0.73v1.63h0.5V9.22l0,0
			v-1.3c0-0.04,0.01-0.07,0.03-0.1L12.54,6.94z"/>
		<path class="st0" d="M8.77,12.56v-1.5l-0.18,0.11c-0.07,0.04-0.15,0.04-0.21,0l-0.22-0.14l0,0v0.58c0,0.06-0.03,0.12-0.08,0.15
			c0.02,0.01,0.04,0.02,0.06,0.03c0.22,0.19,0.31,0.49,0.23,0.77L8.77,12.56z"/>
		<path class="st0" d="M10.58,10.48c-0.31,0-0.52,0.22-0.52,0.34v1.63h1.03v-1.63c0-0.12-0.21-0.34-0.52-0.34"/>
		<path class="st0" d="M4.5,12.56c-0.06-0.15-0.1-0.3-0.13-0.46c-0.03-0.2-0.05-0.41-0.04-0.61c0-0.08,0.06-0.16,0.14-0.19
			l0.44-0.13l-0.49-0.34c-0.05-0.04-0.08-0.1-0.09-0.16V10.1c0-0.07,0.04-0.14,0.11-0.18l0.19-0.1V9.65L4.46,9.57
			c-0.08-0.03-0.13-0.1-0.13-0.18V8.72c0-0.11,0.09-0.2,0.2-0.2c0,0,0,0,0,0h0.61C5.14,8.33,5.14,8.14,5.18,7.95
			c0.06-0.23,0.15-0.44,0.26-0.64L5.41,7.08C5.4,7.03,5.42,6.97,5.45,6.93C5.49,6.88,5.55,6.86,5.6,6.86h0.34
			c0.04,0,0.07,0.01,0.11,0.03L6.87,7.4h0.37c0.05,0,0.11,0.02,0.14,0.06C7.42,7.5,7.44,7.55,7.44,7.61L7.41,8.25
			c0,0.05-0.03,0.1-0.07,0.14h0.25c0.05,0,0.11,0.02,0.14,0.06l0.11,0.12L7.93,8.5L8.08,8.2c0.03-0.07,0.1-0.11,0.18-0.11h0.53V7.97
			L8.28,7.1C8.26,7.07,8.25,7.04,8.25,7V5.75c0-0.11,0.09-0.2,0.2-0.2h4.29c0.11,0,0.2,0.09,0.2,0.2v1.25c0,0.04-0.01,0.07-0.03,0.1
			L12.4,7.97v0.11h0.52c0.08,0,0.14,0.05,0.18,0.11l0.14,0.31l0.09,0.07l0.11-0.12c0.04-0.04,0.09-0.06,0.14-0.06h0.25
			c-0.04-0.04-0.06-0.09-0.07-0.14l-0.03-0.65c0-0.05,0.02-0.11,0.05-0.15c0.04-0.04,0.09-0.06,0.14-0.06h0.37l0.81-0.51
			c0.03-0.02,0.07-0.03,0.11-0.03h0.34c0.06,0,0.11,0.02,0.15,0.07c0.04,0.04,0.05,0.1,0.04,0.16l-0.03,0.23
			c0.12,0.2,0.2,0.42,0.26,0.64c0.03,0.19,0.04,0.38,0.03,0.57h0.61c0.11,0,0.2,0.09,0.2,0.2l0,0v0.67c0,0.08-0.05,0.15-0.12,0.18
			l-0.17,0.07v0.19l0.19,0.1c0.07,0.03,0.11,0.1,0.11,0.18v0.55c0,0.06-0.03,0.13-0.08,0.16l-0.49,0.34l0.44,0.13
			c0.08,0.03,0.14,0.1,0.14,0.19c0,0.21-0.01,0.41-0.04,0.61c-0.02,0.16-0.06,0.31-0.13,0.46h0.73V4.86H3.78v7.7H4.5z"/>
		<path class="st0" d="M13.03,11.79c0.02-0.01,0.04-0.02,0.06-0.03c-0.05-0.04-0.07-0.09-0.08-0.15v-0.58v-0.01l-0.24,0.14
			c-0.07,0.04-0.15,0.04-0.22,0l-0.17-0.1v1.5h0.39c-0.08-0.28,0.01-0.58,0.23-0.77"/>
		<path class="st0" d="M15.67,16.67c-0.11,0-0.2-0.09-0.2-0.2l0,0v-1.3c-0.01-0.12-0.06-0.23-0.15-0.31
			c-0.11-0.11-0.26-0.17-0.41-0.16c-0.27,0.01-0.49,0.21-0.51,0.48v1.29c0,0.11-0.09,0.2-0.2,0.2l0,0h-1.18
			c-0.11,0-0.2-0.09-0.2-0.2l0,0v-1.3c-0.01-0.12-0.06-0.23-0.15-0.31c-0.11-0.11-0.26-0.17-0.41-0.16c-0.13,0-0.25,0.05-0.34,0.14
			l0.97,4.96c1.37-0.61,2.99-1.6,3.87-3.14H15.67z"/>
		<path class="st0" d="M12.5,19.94l-1.37-6.98h-1.1l-1.37,6.98c0,0.01,0,0.02,0,0.03c0.63,0.26,1.28,0.48,1.93,0.66
			c0.65-0.18,1.3-0.4,1.93-0.65v-0.03"/>
		<path class="st0" d="M9.25,14.84c-0.09-0.08-0.22-0.13-0.34-0.13l0,0c-0.15,0-0.29,0.06-0.4,0.16c-0.09,0.08-0.14,0.19-0.15,0.31
			v1.3c0,0.11-0.08,0.2-0.19,0.2c0,0,0,0-0.01,0H6.97c-0.05,0-0.1-0.02-0.14-0.06c-0.04-0.04-0.06-0.09-0.06-0.14v-1.29
			c-0.02-0.27-0.25-0.48-0.52-0.48l0,0c-0.15,0-0.29,0.06-0.4,0.16c-0.09,0.08-0.14,0.19-0.15,0.31v1.3c0,0.11-0.08,0.2-0.19,0.2
			c0,0,0,0-0.01,0H4.42c0.87,1.55,2.49,2.53,3.86,3.13L9.25,14.84z"/>
		<path class="st0" d="M17.38,12.96h-5.83l0.28,1.46c0.37-0.19,0.82-0.13,1.12,0.16c0.16,0.15,0.26,0.37,0.27,0.59v1.1h0.79v-1.12
			c0.04-0.47,0.43-0.84,0.91-0.85c0.26,0,0.5,0.1,0.69,0.27c0.16,0.16,0.25,0.37,0.26,0.59v1.1h1.1c0.29-0.64,0.44-1.33,0.44-2.02
			v-1.3l0,0"/>
		<path class="st0" d="M5.3,16.28v-1.1c0.01-0.22,0.1-0.44,0.26-0.59C5.75,14.4,6,14.31,6.25,14.31c0.47,0.01,0.87,0.37,0.91,0.85
			l0,0v1.1h0.81v-1.08c0.01-0.22,0.1-0.44,0.27-0.59c0.29-0.29,0.74-0.36,1.1-0.17l0.28-1.46H3.78v1.29c0,0.7,0.14,1.39,0.44,2.03
			H5.3z"/>
		<path class="st0" d="M5.77,12.15H6.1c0.02,0.04,0.04,0.09,0.04,0.13c0,0.03,0,0.05,0,0.08c0,0.07-0.01,0.13-0.03,0.2H4.99
			C4.82,12.45,4.74,12,4.73,11.64l0.49-0.15c0.08-0.02,0.14-0.1,0.14-0.19V11.1c0-0.06-0.03-0.12-0.08-0.16l-0.55-0.39v-0.33
			l0.19-0.1c0.07-0.03,0.11-0.1,0.11-0.18V9.51c0-0.08-0.05-0.15-0.12-0.19L4.73,9.25V8.91h0.53L5.5,9.31v0.57l-0.17,0.54
			c-0.02,0.06-0.01,0.13,0.03,0.18c0.04,0.05,0.1,0.08,0.16,0.08h0.15c0.1,0,0.18-0.07,0.2-0.17c0.02-0.15,0.06-0.31,0.11-0.46
			c0.08-0.14,0.17-0.27,0.28-0.39c0.06-0.08,0.06-0.19,0-0.26l-0.69-0.8c-0.03-0.2-0.03-0.4,0-0.6c0.06-0.2,0.14-0.4,0.25-0.58
			C5.84,7.4,5.85,7.36,5.84,7.31V7.24h0.03l0.81,0.51c0.03,0.02,0.07,0.03,0.11,0.03h0.22v0.3l-0.26,0.1
			C6.67,8.2,6.62,8.28,6.62,8.36v0.21c0,0.11,0.09,0.2,0.2,0.2H7.5l0.18,0.19c0.08,0.07,0.19,0.07,0.26,0
			c0.11-0.09,0.22-0.18,0.33-0.27l0.11-0.23h0.4V9.2c0,0-0.73,0.25-0.79,0.28c-0.06,0.03-0.07,0.25-0.07,0.3
			c0.01,0.05,0,0.08,0.09,0.13c0.09,0.07,0.18,0.14,0.27,0.19L8.5,9.9l0.28,0.02v0.69l-0.26,0.16l-0.85-0.59
			c-0.09-0.06-0.21-0.04-0.27,0.04l-0.13,0.17c-0.07,0.08-0.06,0.21,0.02,0.28c0,0,0,0,0,0l0.48,0.45v0.36L7.28,11.7
			c-0.07,0.03-0.12,0.1-0.12,0.18v0.08c0,0.11,0.09,0.2,0.2,0.2h0.58c0.07,0.12,0.08,0.26,0.03,0.39H6.62
			c-0.05-0.06-0.08-0.14-0.08-0.22c0-0.03,0-0.05,0-0.08c0-0.12,0.01-0.23,0.03-0.34l0.31-0.4c0.02-0.03,0.04-0.07,0.04-0.11v-0.19
			c0-0.11-0.08-0.21-0.2-0.21c-0.03,0-0.05,0-0.08,0.01l-0.5,0.21c-0.06,0.03-0.11,0.09-0.12,0.15L6,11.58l-0.29,0.09
			c-0.08,0.02-0.14,0.1-0.14,0.19v0.08c0,0.11,0.09,0.2,0.2,0.2"/>
		<path class="st0" d="M15.39,12.15h-0.32c-0.02,0.04-0.04,0.09-0.04,0.13c0,0.03,0,0.05,0,0.08c0,0.07,0.01,0.13,0.03,0.2h1.13
			c0.16-0.11,0.24-0.55,0.25-0.92l-0.5-0.15c-0.08-0.03-0.14-0.1-0.14-0.19V11.1c0-0.06,0.03-0.13,0.09-0.16l0.55-0.39v-0.33
			l-0.19-0.1c-0.07-0.03-0.11-0.1-0.11-0.18V9.51c0-0.08,0.05-0.15,0.12-0.19l0.18-0.07V8.91h-0.52l-0.25,0.41v0.57l0.17,0.54
			c0.03,0.1-0.02,0.22-0.13,0.25c-0.02,0.01-0.04,0.01-0.06,0.01H15.5c-0.1,0-0.18-0.07-0.2-0.17c-0.03-0.16-0.07-0.31-0.12-0.46
			c-0.07-0.14-0.16-0.27-0.26-0.39c-0.06-0.08-0.06-0.19,0-0.26l0.69-0.79c0.03-0.2,0.03-0.4,0-0.6c-0.06-0.2-0.14-0.4-0.25-0.58
			c-0.02-0.04-0.03-0.09-0.03-0.13V7.25h-0.04l-0.79,0.51c-0.03,0.02-0.07,0.03-0.11,0.03h-0.24v0.3l0.26,0.1
			c0.08,0.03,0.13,0.1,0.13,0.19v0.21c0,0.11-0.09,0.2-0.2,0.2h-0.69l-0.17,0.19c-0.08,0.07-0.19,0.07-0.27,0
			c-0.11-0.09-0.22-0.18-0.32-0.27l-0.11-0.23H12.4V9.2c0,0,0.73,0.25,0.79,0.28c0.06,0.03,0.08,0.25,0.07,0.3
			c-0.01,0.05,0,0.08-0.08,0.13c-0.09,0.07-0.18,0.14-0.28,0.19l-0.21-0.2L12.4,9.92v0.69l0.27,0.16l0.84-0.57
			c0.09-0.06,0.2-0.04,0.27,0.04l0.13,0.17c0.06,0.08,0.05,0.2-0.02,0.27l-0.48,0.45v0.36l0.48,0.21c0.07,0.03,0.12,0.1,0.12,0.18
			v0.08c0,0.11-0.09,0.2-0.2,0.2l0,0h-0.57c-0.08,0.12-0.08,0.28-0.02,0.41h1.33c0.05-0.06,0.08-0.14,0.08-0.22
			c0-0.02,0-0.05,0-0.08c0-0.12-0.01-0.23-0.03-0.34l-0.31-0.4c-0.03-0.03-0.04-0.07-0.04-0.11v-0.19c0-0.07,0.03-0.13,0.09-0.17
			c0.05-0.04,0.13-0.05,0.19-0.02l0.5,0.21c0.06,0.03,0.11,0.09,0.12,0.15l0.03,0.2l0.29,0.09c0.08,0.02,0.14,0.1,0.14,0.19v0.08
			C15.59,12.06,15.5,12.15,15.39,12.15L15.39,12.15"/>
	</g>
</g>
</svg>
