<?xml version="1.0" encoding="utf-8"?>
<!-- Generator: Adobe Illustrator 24.0.3, SVG Export Plug-In . SVG Version: 6.00 Build 0)  -->
<svg version="1.1" id="Capa_1" xmlns="http://www.w3.org/2000/svg" xmlns:xlink="http://www.w3.org/1999/xlink" x="0px" y="0px"
	 viewBox="0 0 512 512" style="enable-background:new 0 0 512 512;" xml:space="preserve">
<style type="text/css">
	.st0{fill:#EC8213;}
</style>
<g>
	<g>
		<path class="st0" d="M505.23,247.51c-4.34-10.24-10.54-19.43-18.45-27.33c-7.9-7.91-17.09-14.11-27.33-18.45
			c-10.6-4.49-21.85-6.77-33.45-6.77h-0.02c-10.36,0-20.51,1.84-30.16,5.48c-7.64,2.87-14.77,6.82-21.3,11.71L70.45,36.57
			c-5.21-3.01-11.27-3.81-17.07-2.25c-5.81,1.56-10.66,5.28-13.66,10.48L28.46,64.29c-3.01,5.21-3.8,11.27-2.25,17.07
			c1.56,5.81,5.28,10.66,10.48,13.66l372.17,214.9c3.64,2.11,8.22,0.77,10.24-2.74c2.07-3.58,0.85-8.17-2.73-10.24l-0.01-0.01
			l-46.44-26.81c17.73-4.75,41.95-11.24,51.22-13.73l13.97,8.07c5.77,3.33,9.37,9.56,9.38,16.26c-0.02,6.32-3.17,11.91-7.87,15.24
			c-3.43,2.46-4.14,7.12-1.76,10.46c2.36,3.34,7.03,4.2,10.44,1.78c0.01,0,0.01-0.01,0.02-0.01c8.99-6.4,14.17-16.73,14.17-27.47
			c0-11.98-6.33-23.14-16.88-29.25l-53.69-31c11.11-6.82,23.94-10.51,37.07-10.52c18.92,0,36.74,7.4,50.18,20.82
			C489.6,244.21,497,262.03,497,280.95v182.5H355V294.6c0-4.14-3.37-7.5-7.5-7.5c-4.14,0-7.5,3.36-7.5,7.5v176.35
			c0,1.98,0.8,3.91,2.2,5.3c1.39,1.4,3.32,2.2,5.3,2.2h157c1.97,0,3.91-0.8,5.3-2.2c1.4-1.39,2.2-3.33,2.2-5.3v-190
			C512,269.36,509.72,258.11,505.23,247.51z M44.2,82.03c-1.74-1-2.98-2.62-3.49-4.55c-0.52-1.94-0.25-3.96,0.75-5.69L52.71,52.3
			c1-1.74,2.62-2.98,4.55-3.49c1.94-0.52,3.96-0.25,5.69,0.75l47.54,27.45L59.27,90.73L44.2,82.03z M77.64,101.34l51.23-13.72
			l40.09,23.15l-51.23,13.72L77.64,101.34z M136.09,135.1l51.23-13.72l40.09,23.15l-51.23,13.72L136.09,135.1z M194.55,168.85
			l51.23-13.72l40.09,23.15L234.64,192L194.55,168.85z M253.01,202.61l51.23-13.72l40.09,23.15l-51.23,13.72L253.01,202.61z
			 M402.78,245.79l-51.23,13.72l-40.09-23.15l51.23-13.72l8.59,4.96c0.04,0.02,0.08,0.05,0.12,0.07L402.78,245.79z"/>
	</g>
</g>
<g>
	<g>
		<path class="st0" d="M64.5,273.46h-27c-20.68,0-37.5,16.82-37.5,37.5v160c0,4.14,3.36,7.5,7.5,7.5h87c4.14,0,7.5-3.36,7.5-7.5
			v-160C102,290.28,85.17,273.46,64.5,273.46z M87,463.46H15v-152.5c0-12.41,10.09-22.5,22.5-22.5h27c12.41,0,22.5,10.09,22.5,22.5
			V463.46z"/>
	</g>
</g>
<g>
	<g>
		<path class="st0" d="M64.5,304.43h-27c-4.14,0-7.5,3.36-7.5,7.5v26.99c0,4.14,3.36,7.5,7.5,7.5s7.5-3.36,7.5-7.5v-19.49h12v19.49
			c0,4.14,3.36,7.5,7.5,7.5s7.5-3.36,7.5-7.5v-26.99C72,307.79,68.64,304.43,64.5,304.43z"/>
	</g>
</g>
<g>
	<g>
		<path class="st0" d="M426,324.61c-17.92,0-32.5,14.58-32.5,32.5s14.58,32.5,32.5,32.5s32.5-14.58,32.5-32.5
			S443.92,324.61,426,324.61z M426,374.61c-9.65,0-17.5-7.85-17.5-17.5c0-9.65,7.85-17.5,17.5-17.5s17.5,7.85,17.5,17.5
			S435.65,374.61,426,374.61z"/>
	</g>
</g>
</svg>
