<?xml version="1.0" encoding="utf-8"?>
<!-- Generator: Adobe Illustrator 24.0.3, SVG Export Plug-In . SVG Version: 6.00 Build 0)  -->
<svg version="1.1" id="Capa_1" xmlns="http://www.w3.org/2000/svg" xmlns:xlink="http://www.w3.org/1999/xlink" x="0px" y="0px"
	 viewBox="0 0 512 512" style="enable-background:new 0 0 512 512;" xml:space="preserve">
<style type="text/css">
	.st0{fill:#EC8213;}
</style>
<g>
	<g>
		<path class="st0" d="M440.5,361.04c-0.06-0.1-0.12-0.2-0.18-0.29c-0.43-0.7-0.87-1.4-1.32-2.09c-0.25-0.38-0.5-0.76-0.75-1.14
			c-0.31-0.46-0.62-0.92-0.94-1.37c-0.41-0.59-0.83-1.17-1.26-1.75c-0.13-0.17-0.24-0.35-0.37-0.52c-0.09-0.12-0.19-0.24-0.28-0.36
			c-0.51-0.68-1.04-1.35-1.57-2.01c-0.19-0.23-0.37-0.46-0.56-0.69c-0.53-0.65-1.07-1.28-1.62-1.91c-0.23-0.26-0.45-0.53-0.68-0.79
			c-0.46-0.51-0.92-1.02-1.39-1.52c-0.35-0.38-0.7-0.75-1.05-1.12c-0.27-0.28-0.54-0.54-0.81-0.82
			c-10.36-10.48-23.12-18.14-37.49-22.37c-0.25-0.07-0.5-0.13-0.75-0.18c0,0-67.8-12.59-67.8-12.6c-0.12-0.02-0.24-0.03-0.36-0.05
			c-3.17-0.52-6.41-0.09-9.32,1.18c-2.36-2.9-3.92-6.88-3.92-10.56v-12.27c4.29-2.74,8.45-5.81,12.46-9.27
			c16.8-14.47,27.38-35.35,29.67-58.13c12.34-0.57,22.2-10.78,22.2-23.26v-17.49c0-7.07-3.17-13.62-8.5-17.98v-40.2
			c24.51-12.08,29.84-26.17,29.84-36.1c0-17.05-15.88-38.4-41.45-55.7C335.93,18.6,301.64,0,256,0s-79.93,18.6-96.31,29.69
			c-25.57,17.31-41.45,38.65-41.45,55.7c0,9.94,5.33,24.02,29.84,36.1v40.2c-5.33,4.37-8.5,10.91-8.5,17.98v17.49
			c0,12.47,9.86,22.69,22.2,23.26c2.28,22.78,12.86,43.66,29.67,58.13c4.02,3.46,8.18,6.53,12.46,9.27v12.27
			c0,3.68-1.55,7.66-3.91,10.56c-3.02-1.32-6.4-1.75-9.68-1.14l-67.8,12.6c-0.25,0.05-0.5,0.11-0.75,0.18
			c-14.36,4.23-27.12,11.88-37.47,22.35c-0.28,0.28-0.56,0.55-0.83,0.84c-0.35,0.36-0.69,0.74-1.04,1.11
			c-0.47,0.51-0.94,1.02-1.41,1.54c-0.23,0.26-0.45,0.52-0.67,0.78c-0.55,0.63-1.09,1.27-1.62,1.92c-0.19,0.23-0.37,0.46-0.55,0.69
			c-0.53,0.66-1.06,1.33-1.57,2.01c-0.09,0.12-0.19,0.23-0.28,0.36c-0.13,0.17-0.25,0.35-0.37,0.52c-0.43,0.58-0.84,1.16-1.25,1.75
			c-0.32,0.45-0.63,0.91-0.94,1.37c-0.25,0.38-0.5,0.76-0.75,1.14c-0.45,0.69-0.89,1.39-1.32,2.09c-0.06,0.1-0.12,0.2-0.18,0.29
			c-8.29,13.66-12.65,29.17-12.65,45.35v9.14c0,4.14,3.36,7.5,7.5,7.5s7.5-3.36,7.5-7.5v-9.14c0-7.31,1.08-14.46,3.17-21.28
			c4.42,3.51,9.77,5.38,15.34,5.38c0.89,0,1.79-0.05,2.68-0.14c6.57-0.7,12.47-3.92,16.62-9.07l8.16-10.12
			c4.15-5.14,6.04-11.59,5.34-18.16c-0.56-5.22-2.71-10.02-6.15-13.85c2.16-0.88,4.36-1.67,6.61-2.35l43.26-8.04l34.33,48.04
			c3.44,4.81,8.82,7.46,14.4,7.46c2.34,0,4.72-0.47,7-1.43l2.29-0.97l9.99,11.61l-14.41,103.54h-94.27v-60.83
			c0-4.14-3.36-7.5-7.5-7.5s-7.5,3.36-7.5,7.5v60.83H83.2c-5.15,0-9.34-4.19-9.34-9.34v-37.21c0-4.14-3.36-7.5-7.5-7.5
			s-7.5,3.36-7.5,7.5v37.21c0,13.42,10.92,24.35,24.35,24.35H428.8c13.42,0,24.35-10.92,24.35-24.35v-81.26
			C453.15,390.21,448.79,374.7,440.5,361.04z M108.15,361.73l-8.16,10.13c-1.63,2.02-3.95,3.29-6.54,3.57
			c-2.58,0.28-5.12-0.47-7.14-2.1l-3.13-2.52c0.67-1.2,1.38-2.37,2.11-3.53c0.01-0.01,0.02-0.03,0.03-0.04
			c0.63-0.99,1.29-1.95,1.97-2.9c0.21-0.29,0.41-0.58,0.62-0.86c0.6-0.82,1.22-1.63,1.86-2.43c0.16-0.21,0.32-0.42,0.49-0.62
			c0.72-0.88,1.46-1.74,2.21-2.58c0.22-0.25,0.45-0.49,0.67-0.73c0.75-0.81,1.51-1.61,2.3-2.39c0.07-0.07,0.13-0.14,0.2-0.2
			c2.9-2.85,6.05-5.45,9.41-7.79l1.64,1.33c2.02,1.63,3.29,3.95,3.57,6.54C110.53,357.17,109.79,359.71,108.15,361.73z
			 M405.31,348.05l1.64-1.33c3.37,2.34,6.51,4.94,9.41,7.79c0.07,0.07,0.13,0.14,0.2,0.2c0.79,0.78,1.55,1.58,2.3,2.39
			c0.22,0.24,0.45,0.48,0.67,0.73c0.76,0.84,1.5,1.7,2.21,2.58c0.17,0.2,0.33,0.41,0.49,0.62c0.64,0.8,1.25,1.61,1.86,2.43
			c0.21,0.29,0.41,0.57,0.62,0.86c0.67,0.95,1.34,1.92,1.97,2.9c0.01,0.01,0.02,0.03,0.03,0.04c0.73,1.15,1.44,2.33,2.11,3.53
			l-3.13,2.52c-2.02,1.63-4.56,2.38-7.14,2.1c-2.58-0.28-4.9-1.54-6.54-3.57l-8.16-10.12C400.48,357.55,401.14,351.42,405.31,348.05
			z M315.74,326.05c0.01-0.01,0.02-0.02,0.03-0.02l1.96-1.47c0.35-0.26,0.8-0.36,1.22-0.29l7.87,1.46l-30.25,42.34
			c-0.76,1.06-2.12,1.44-3.32,0.93l-22.3-9.48L315.74,326.05z M256,351.96l-43.72-32.68c4.13-5.42,6.62-12.32,6.62-19.19v-4.39
			c11.57,4.85,23.94,7.38,37.01,7.53c0.03,0,0.06,0,0.08,0c0.03,0,0.06,0,0.08,0c13.07-0.15,25.44-2.68,37.01-7.53v4.39
			c0,6.87,2.49,13.77,6.62,19.19L256,351.96z M270.6,375.69l-6.83,7.95h-15.54l-6.83-7.95l14.6-6.2L270.6,375.69z M148.08,104.39
			c-9.64-5.94-14.84-12.51-14.84-19c0-13.52,18.07-31.91,34.85-43.28C183.06,31.99,214.36,15,256,15s72.94,16.99,87.9,27.11
			c16.79,11.36,34.85,29.75,34.85,43.28c0,6.49-5.19,13.06-14.84,19V90.75c0-10.6-7.17-19.83-17.44-22.45
			c-19.42-4.96-57.62-13.29-95.17-13.31c-0.03,0-0.06,0-0.1,0c-32.52,0-64.84,7.16-86.22,13.17c-9.95,2.8-16.91,11.97-16.91,22.31
			V104.39z M174.1,130.73c-0.1-0.07-0.21-0.13-0.32-0.2c-0.49-0.31-0.95-0.62-1.41-0.94c-0.18-0.13-0.37-0.26-0.55-0.38
			c-0.37-0.26-0.73-0.53-1.08-0.8c-0.24-0.18-0.47-0.37-0.7-0.55c-0.28-0.22-0.55-0.44-0.81-0.66c-0.28-0.24-0.54-0.47-0.8-0.71
			c-0.19-0.18-0.39-0.35-0.57-0.53c-0.29-0.28-0.57-0.57-0.84-0.85c-0.13-0.14-0.26-0.27-0.38-0.41c-0.01-0.01-0.02-0.03-0.04-0.04
			h125.95c4.14,0,7.5-3.36,7.5-7.5c0-4.14-3.36-7.5-7.5-7.5H163.09V90.47c0-3.64,2.45-6.88,5.96-7.86
			C189.53,76.85,220.39,70,251.21,70c0.03,0,0.06,0,0.09,0c35.92,0.01,72.72,8.05,91.47,12.84c3.62,0.93,6.15,4.18,6.15,7.92v18.91
			h-20.12c-4.14,0-7.5,3.36-7.5,7.5c0,4.14,3.36,7.5,7.5,7.5h16.61c-0.01,0.01-0.02,0.03-0.04,0.04c-0.12,0.14-0.26,0.27-0.38,0.41
			c-0.27,0.28-0.54,0.57-0.84,0.85c-0.18,0.18-0.38,0.35-0.57,0.53c-0.26,0.24-0.52,0.47-0.8,0.71c-0.26,0.22-0.53,0.44-0.81,0.66
			c-0.23,0.18-0.46,0.37-0.7,0.55c-0.35,0.27-0.71,0.53-1.08,0.8c-0.18,0.13-0.36,0.26-0.55,0.38c-0.46,0.31-0.92,0.63-1.41,0.94
			c-0.1,0.07-0.21,0.13-0.32,0.2c-3.12,1.96-6.83,3.85-11.08,5.61c-0.09,0.04-0.17,0.09-0.26,0.13
			c-16.07,6.63-40.23,11.63-70.57,11.63s-54.49-5.01-70.57-11.63c-0.09-0.04-0.17-0.09-0.26-0.13
			C180.93,134.59,177.22,132.7,174.1,130.73z M174.81,148.17v14.62c-4.12-2.14-8.3-3.29-11.72-3.9v-17.43
			C166.31,143.73,170.18,145.99,174.81,148.17z M337.19,148.17c4.63-2.18,8.5-4.43,11.72-6.72v17.43c-3.42,0.62-7.6,1.77-11.72,3.9
			V148.17z M201.23,267.18c-15.37-13.23-24.44-33.05-24.9-54.39c-0.09-4.08-3.42-7.34-7.5-7.34h-5.97c-4.56,0-8.28-3.71-8.28-8.28
			v-17.49c0-2.52,1.13-4.85,3.04-6.4c2.65,0.23,7.58,1.03,11.77,3.69c0.04,0.03,0.08,0.05,0.12,0.08c0.59,0.38,1.16,0.8,1.72,1.26
			c0.06,0.05,0.13,0.11,0.19,0.16c0.27,0.23,0.53,0.47,0.79,0.72c0.22,0.22,0.46,0.43,0.69,0.62c0.07,0.06,0.14,0.11,0.21,0.17
			c0.18,0.14,0.36,0.27,0.55,0.4c0.07,0.05,0.15,0.1,0.22,0.15c0.25,0.16,0.51,0.32,0.78,0.46c0,0,0,0,0,0
			c0.27,0.14,0.54,0.27,0.82,0.38c0.08,0.03,0.15,0.06,0.23,0.09c0.21,0.08,0.43,0.16,0.64,0.23c0.08,0.03,0.16,0.05,0.24,0.07
			c0.28,0.08,0.57,0.15,0.86,0.21c0.01,0,0.01,0,0.01,0c0.3,0.06,0.6,0.1,0.9,0.13c0.08,0.01,0.16,0.01,0.24,0.02
			c0.23,0.02,0.46,0.03,0.68,0.03c0.05,0,0.1,0.01,0.15,0.01c0.03,0,0.07-0.01,0.1-0.01c0.29,0,0.59-0.01,0.89-0.04
			c0.01,0,0.02,0,0.02,0c0.3-0.03,0.61-0.08,0.91-0.13c0.09-0.02,0.17-0.04,0.26-0.05c0.22-0.05,0.45-0.1,0.67-0.17
			c0.09-0.02,0.18-0.05,0.26-0.08c0.3-0.09,0.59-0.2,0.88-0.32c3.87-1.62,6.37-5.36,6.37-9.55v-17.94
			c19.32,6.08,43.07,9.23,66.19,9.23s46.87-3.15,66.19-9.23v17.94c0,4.19,2.5,7.94,6.37,9.55c0.29,0.12,0.59,0.23,0.89,0.32
			c0.08,0.03,0.17,0.05,0.25,0.07c0.23,0.07,0.46,0.12,0.69,0.17c0.08,0.02,0.16,0.04,0.24,0.05c0.61,0.12,1.22,0.18,1.83,0.18
			c0.03,0,0.06,0.01,0.09,0.01c0.05,0,0.1-0.01,0.14-0.01c0.23,0,0.47-0.01,0.7-0.03c0.08-0.01,0.15-0.01,0.23-0.02
			c0.6-0.06,1.19-0.18,1.77-0.35c0.08-0.02,0.16-0.05,0.24-0.07c0.22-0.07,0.43-0.15,0.65-0.23c0.08-0.03,0.15-0.06,0.23-0.09
			c0.28-0.12,0.55-0.24,0.82-0.38c0,0,0,0,0.01,0c0.26-0.14,0.52-0.29,0.77-0.46c0.08-0.05,0.15-0.1,0.22-0.15
			c0.19-0.13,0.37-0.26,0.55-0.4c0.07-0.06,0.14-0.11,0.21-0.17c0.24-0.2,0.47-0.4,0.69-0.62c0.25-0.25,0.51-0.49,0.78-0.71
			c0.07-0.06,0.14-0.12,0.21-0.18c0.25-0.21,0.49-0.4,0.75-0.59c0.02-0.02,0.05-0.04,0.07-0.05c0.28-0.2,0.56-0.39,0.84-0.58
			c0.08-0.05,0.15-0.1,0.23-0.15c0.25-0.16,0.51-0.31,0.77-0.46c0.04-0.02,0.07-0.04,0.11-0.07c0.29-0.16,0.59-0.32,0.89-0.46
			c0.07-0.04,0.15-0.07,0.22-0.11c0.27-0.13,0.53-0.25,0.8-0.37c0.04-0.02,0.07-0.03,0.11-0.05c0.31-0.13,0.62-0.26,0.92-0.37
			c0.05-0.02,0.11-0.04,0.16-0.06c0.29-0.11,0.58-0.21,0.87-0.31c0.02-0.01,0.03-0.01,0.05-0.02c0.33-0.11,0.65-0.21,0.97-0.3
			c0.01,0,0.02-0.01,0.04-0.01c2.29-0.66,4.38-0.95,5.8-1.07c1.91,1.55,3.05,3.89,3.05,6.4v17.49c0,4.57-3.71,8.28-8.28,8.28h-5.97
			c-4.08,0-7.41,3.26-7.5,7.34c-0.46,21.34-9.53,41.16-24.9,54.39c-15.93,13.72-34.36,20.8-54.77,21.05
			C235.59,287.98,217.16,280.9,201.23,267.18z M218.75,369c-1.2,0.51-2.57,0.12-3.32-0.93l-30.25-42.34l7.87-1.46
			c0.43-0.08,0.87,0.02,1.22,0.29l1.96,1.47c0.01,0.01,0.02,0.02,0.03,0.02l44.79,33.48L218.75,369z M237.63,496.99l13.69-98.36
			h9.36l13.69,98.36H237.63z M428.8,496.99H398.8v-60.83c0-4.14-3.36-7.5-7.5-7.5s-7.5,3.36-7.5,7.5v60.83h-94.27l-14.41-103.54
			l9.99-11.61l2.29,0.97c2.28,0.97,4.66,1.43,7,1.43c5.58,0,10.96-2.65,14.4-7.46l34.33-48.04l43.26,8.04
			c2.26,0.68,4.46,1.47,6.62,2.35c-7.93,8.86-8.52,22.45-0.82,32.01l8.17,10.13c4.15,5.14,10.05,8.36,16.62,9.07
			c0.9,0.1,1.79,0.14,2.68,0.14c5.57,0,10.93-1.87,15.34-5.38c2.09,6.83,3.17,13.97,3.17,21.28v81.27h0
			C438.14,492.8,433.95,496.99,428.8,496.99z"/>
	</g>
</g>
<g>
	<g>
		<path class="st0" d="M358.41,428.66H318.9c-6.76,0-12.26,5.5-12.26,12.26v21.05c0,6.76,5.5,12.26,12.26,12.26h39.51
			c6.76,0,12.26-5.5,12.26-12.26v-21.05C370.66,434.16,365.17,428.66,358.41,428.66z M321.65,459.21v-15.55h34.01v15.55H321.65z"/>
	</g>
</g>
<g>
	<g>
		<path class="st0" d="M193.1,428.66h-39.51c-6.76,0-12.26,5.5-12.26,12.26v21.05c0,6.76,5.5,12.26,12.26,12.26h39.51
			c6.76,0,12.26-5.5,12.26-12.26v-21.05C205.36,434.16,199.86,428.66,193.1,428.66z M190.35,459.21h-34.01v-15.55h34.01V459.21z"/>
	</g>
</g>
</svg>
